<?xml version="1.0" encoding="utf-8"?>
<!-- Generator: Adobe Illustrator 22.0.0, SVG Export Plug-In . SVG Version: 6.00 Build 0)  -->
<svg version="1.1" id="Layer_1" xmlns="http://www.w3.org/2000/svg" xmlns:xlink="http://www.w3.org/1999/xlink" x="0px" y="0px"
	 viewBox="0 0 1366 768" style="enable-background:new 0 0 1366 768;" xml:space="preserve">
<style type="text/css">
	.st0{opacity:0.75;}
	.st1{fill:#33FF33;}
	.st2{fill:#0066FF;}
	.st3{fill:#3399FF;}
	.st4{fill:#FFFFFF;stroke:#3399FF;stroke-width:2;stroke-miterlimit:10;}
	.st5{fill:#FFFFFF;stroke:#33FF33;stroke-width:2;stroke-miterlimit:10;}
</style>
<g class="st0">
	<g>
		<path class="st1" d="M0.3,651.1c52.7-18.7,100.7-47.3,150.6-72c51.6-25.4,107.2-46,165.3-47.6c55.3-1.5,106,18.8,157.9,34.8
			c24.2,7.4,49,13.8,74.4,15.4c26.6,1.7,52-3.1,77.2-11.3c26.5-8.6,52.7-19.2,80.8-21.1c27.4-1.8,54.4,4,80.8,10.8
			c25.9,6.7,51.6,14.6,78.2,17.9c26.7,3.3,53.8,1.2,79.8-5.8c49.1-13.1,94-43.1,127.5-81.1c17-19.3,29.1-41.4,40.5-64.3
			c12.4-24.9,23.7-50.5,33.7-76.5c38.1-99.3,55.2-204.1,69.9-308.9c1.9-13.6,3.8-27.1,5.7-40.7c0.2-1.4-2-2-2.2-0.6
			c-14.5,104-28.2,208.6-61.1,308.7c-8.7,26.4-18.6,52.5-29.8,77.9c-11.2,25.5-22.9,51.7-37.8,75.3c-27.3,43.5-71.9,79.3-119.3,98.6
			c-25.4,10.3-52.7,16.3-80.1,16.6c-27.9,0.3-55-6.2-81.8-13.3c-25.2-6.7-50.5-14.1-76.6-16.5c-26.8-2.5-52.2,2.1-77.6,10.3
			c-26.2,8.4-51.9,18.8-79.5,21.3c-26.1,2.4-52.3-1.5-77.6-8c-50.1-12.8-97.8-34.9-149.6-40.5c-55.6-6-111.3,8-162.3,29.3
			c-50.4,21.1-97,50-146.8,72.5c-13.4,6.1-27.1,11.6-41,16.6C-1.7,649.4-1.1,651.6,0.3,651.1L0.3,651.1z"/>
	</g>
</g>
<g class="st0">
	<g>
		<path class="st2" d="M1488.5-219c1.9,0,1.9-3,0-3C1486.6-222,1486.6-219,1488.5-219L1488.5-219z"/>
	</g>
</g>
<g class="st0">
	<g>
		<path class="st3" d="M2.5,768.6c72.7,3,136.2-37.6,202-62.2c36-13.5,73-21.2,111.5-18.1c42.4,3.3,83.2,16.2,124.8,23.9
			c76.8,14.2,155.8,0.1,227.2-29.9c35-14.7,68.3-33.3,99.4-55c15.2-10.6,30-21.9,44.1-33.9c15.8-13.4,31.1-26.8,49-37.4
			c29.4-17.3,62-25.3,95.8-28.1c16.1-1.3,32.3-1.8,48.4-2.5c13.2-0.6,26.7-0.5,39.7-2.8c33.1-5.7,60.9-30.2,83.2-53.8
			c31.5-33.5,57.1-72.4,80.4-111.9c26.3-44.6,49.6-90.9,71.3-137.9c19.1-41.5,37-83.6,53.7-126.2c10.7-27.3,21.1-54.7,30.5-82.5
			c1.1-3.1,2.1-6.3,3.1-9.4c0.4-1.4-1.7-2-2.2-0.6c-6.9,22-15.1,43.7-23.3,65.2c-15.2,40-31.4,79.7-48.7,118.9
			c-20.6,46.6-42.6,92.6-67,137.3c-23.2,42.4-48.6,84.2-79,121.9c-22.8,28.2-50.1,57.8-84.5,71.6c-21.1,8.5-44.7,7.4-67,8.3
			c-30.8,1.2-61.8,2.5-91.6,11.4c-35.2,10.4-63.4,31.1-90.9,54.7c-29.5,25.2-61.4,47.6-95.4,66.4c-67.5,37.3-144.9,61.3-222.6,60
			c-80.6-1.3-156.6-42.1-238-26.8C186,702.3,125.7,745.6,56,761.3c-17.6,4-35.5,5.8-53.5,5.1C1.1,766.3,1.1,768.6,2.5,768.6
			L2.5,768.6z"/>
	</g>
</g>
<circle class="st4" cx="186.8" cy="711.8" r="10.3"/>
<circle class="st4" cx="483.8" cy="715.8" r="10.3"/>
<circle class="st5" cx="838.8" cy="565.8" r="10.3"/>
<circle class="st4" cx="1267.8" cy="240.8" r="10.3"/>
<circle class="st4" cx="682.8" cy="673.8" r="10.3"/>
<circle class="st5" cx="87.8" cy="610.8" r="10.3"/>
<circle class="st5" cx="329.8" cy="529.8" r="10.3"/>
<circle class="st5" cx="620.8" cy="570.8" r="10.3"/>
<circle class="st4" cx="837.8" cy="572.8" r="10.3"/>
<circle class="st4" cx="1038.8" cy="520.8" r="10.3"/>
<circle class="st5" cx="1165.8" cy="295.8" r="10.3"/>
<circle class="st5" cx="1206.8" cy="104.8" r="10.3"/>
<circle class="st4" cx="1175.8" cy="413.8" r="10.3"/>
</svg>
