<?xml version="1.0" encoding="utf-8"?>
<!-- Generator: Adobe Illustrator 22.0.0, SVG Export Plug-In . SVG Version: 6.00 Build 0)  -->
<svg version="1.1" id="Layer_1" xmlns="http://www.w3.org/2000/svg" xmlns:xlink="http://www.w3.org/1999/xlink" x="0px" y="0px"
	 viewBox="0 0 1366 768" style="enable-background:new 0 0 1366 768;" xml:space="preserve">
<style type="text/css">
	.st0{fill:none;stroke:#0099FF;stroke-width:3;stroke-miterlimit:10;}
	.st1{fill:#269BDD;}
	.st2{fill:none;stroke:#0099FF;stroke-width:2;stroke-miterlimit:10;}
	.st3{fill:none;stroke:#0099FF;stroke-width:5;stroke-miterlimit:10;}
	.st4{fill:#0099FF;stroke:#0099FF;stroke-width:3;stroke-miterlimit:10;}
	.st5{fill:none;stroke:#71BEE9;stroke-miterlimit:10;}
	.st6{fill:none;stroke:#078DD8;stroke-width:3;stroke-miterlimit:10;}
	.st7{fill:#0099FF;}
	.st8{fill:none;stroke:#078DD8;stroke-width:7;stroke-miterlimit:10;}
	.st9{fill:none;stroke:#078DD8;stroke-width:4;stroke-miterlimit:10;}
</style>
<line class="st0" x1="605.5" y1="369" x2="557.5" y2="387.5"/>
<line class="st0" x1="557.5" y1="356.5" x2="550.5" y2="392.5"/>
<line class="st0" x1="558.5" y1="359.5" x2="586.5" y2="372.5"/>
<g>
	<g>
		<g>
			<g>
				<g>
					<path class="st1" d="M1263.9,765.2c-0.3,0-0.4,0.1-0.2,0.3c0,0,0.2,0.1,0.1,0.1c0,0,0,0,0,0c0,0.2-0.1,0.2-0.1,0.4
						c0,0.1,0,0.2,0,0.3c0,0,0,0.1,0,0.1c0,0,0,0,0,0c0,0,0,0,0,0c0,0,0,0-0.1,0c-0.1,0-0.2,0-0.4,0.1l-0.1,0.1l0,0l0,0l0-0.1
						c0-0.1-0.1-0.2-0.3-0.4c-0.4-0.1-0.8-0.3-1.2-0.4c0.3,0.3,0.6,0.6,0.8,0.8l0.2,0.2l0,0.1l0,0c0.1-0.1,0.3-0.1,0.4-0.2
						c0.3-0.1,0.5-0.2,0.7-0.2c0,0,0.1,0,0.1,0c0,0,0,0,0-0.1c0-0.1-0.1-0.4,0-0.6C1263.9,765.6,1263.9,765.4,1263.9,765.2
						C1264,765.1,1263.9,765.2,1263.9,765.2L1263.9,765.2z"/>
					<path class="st1" d="M1256.3,758.8c-1.7-1.1-3.8-2.1-3.2-0.8c1.9,0.8,2.1,1.3,4.1,2.2c1.3,1.1,2,2.1,1.6,2.1
						c0.6,0.3,1.8,1.9,2.7,2.2c-1.2-1.9-3.2-3.8-5.6-5.4C1255.6,758.6,1256.2,758.8,1256.3,758.8z"/>
					<path class="st1" d="M1129.2,654.7l0.8,0.7C1129.8,655.2,1129.5,654.9,1129.2,654.7z"/>
					<path class="st1" d="M1048.8,592.2c0.6,0.5,0.9,0.6,1,0.6C1049.2,592.4,1048.7,592.1,1048.8,592.2z"/>
					<path class="st1" d="M1035.4,581.1c0.3,0.2,0.5,0.4,0.8,0.7C1035.9,581.5,1035.6,581.2,1035.4,581.1z"/>
					<path class="st1" d="M1129.2,654.7l-2-1.8C1126.9,652.9,1128.2,653.8,1129.2,654.7z"/>
					<path class="st1" d="M1238.1,745.3c0.5,0.3,0.9,0.6,1.2,0.8c-0.4-0.3-0.7-0.6-1.1-0.8C1238.2,745.3,1238.2,745.3,1238.1,745.3z
						"/>
					<path class="st1" d="M1164.8,682l0.6,0.5c0.2,0.1,0.5,0.2,0.7,0.2L1164.8,682z"/>
					<path class="st1" d="M1191.9,703.4c-0.6-0.5-1.2-0.2-1.5-0.2c0.5,0.1,1,0.4,1.6,0.8C1192,703.8,1192,703.7,1191.9,703.4z"/>
					<path class="st1" d="M1233.6,738.6l0.8,0.6C1234.2,739,1233.9,738.8,1233.6,738.6z"/>
					<path class="st1" d="M1145.6,666.6c0-0.1,0-0.2-0.1-0.4C1145.4,666.3,1145.4,666.5,1145.6,666.6z"/>
					<path class="st1" d="M358.9,523.9C358.9,523.9,358.9,523.9,358.9,523.9C358.7,524,358.7,524,358.9,523.9z"/>
					<path class="st1" d="M321.7,539.1l0.5-0.2c0-0.1,0-0.2,0-0.3L321.7,539.1z"/>
					<path class="st1" d="M1010.3,561.4c0,0,0.1,0.1,0.1,0.1C1011.2,562,1010.8,561.7,1010.3,561.4z"/>
					<path class="st1" d="M776.9,390.7c1.4,3-3.5-4.1-1.2,0.3C775.6,390.5,778.9,394.3,776.9,390.7z"/>
					<path class="st1" d="M1237.5,744.7c-0.4-0.3-0.7-0.6-1.1-0.9C1236.9,744.2,1237.2,744.5,1237.5,744.7z"/>
					<path class="st1" d="M775.7,391L775.7,391l0.2,0.5C775.8,391.3,775.8,391.2,775.7,391z"/>
					<path class="st1" d="M951,518.3c0.1,0.2,0.3,0.4,0.5,0.6C951.5,518.9,951.4,518.7,951,518.3z"/>
					<path class="st1" d="M994.7,551.2l-1-0.9C994,550.7,994.4,551,994.7,551.2z"/>
					<path class="st1" d="M927.5,502.5c-0.6-0.5-0.7-0.7-1.6-1.2c0.1,0.1,0.1,0.1,0.2,0.2C926.4,501.7,926.8,501.9,927.5,502.5z"/>
					<path class="st1" d="M903.2,485.6c0.1,0.1,0.3,0.3,0.4,0.4c0.2,0.2,0.5,0.3,0.8,0.5L903.2,485.6z"/>
					<path class="st1" d="M431.6,471c-0.6,0.3-1,0.4-1.4,0.4C430.9,471.4,427.5,474.2,431.6,471z"/>
					<path class="st1" d="M1238.3,745.1c-0.2,0-0.5-0.1-0.8-0.4c0.3,0.2,0.5,0.4,0.8,0.6C1238.4,745.3,1238.4,745.2,1238.3,745.1z"
						/>
					<path class="st1" d="M923.9,505.4l-3.8-2.8C921.2,503.4,922.6,504.4,923.9,505.4z"/>
					<path class="st1" d="M614.1,379.3l-1,0.6C613.5,379.6,613.9,379.5,614.1,379.3z"/>
					<path class="st1" d="M908.7,494.7c-0.6-0.6-1.2-1.2-1.9-1.8c-0.2-0.1-0.4-0.2-0.5-0.2L908.7,494.7z"/>
					<path class="st1" d="M430.3,471.4C430.3,471.4,430.3,471.4,430.3,471.4C430.3,471.4,430.3,471.4,430.3,471.4z"/>
					<path class="st1" d="M406.6,491.4c3.6-2.7,1.2-1.8,1.7-2.8c4.1-3.4,2.3-1.1,4-1.9c2.5-2.2,4.1-4.3,6.1-5.8
						c0.2,0,0.6-0.3,0.3,0.2c2.4-2.6,8.2-6.4,11-9.5c0.3-0.1,0.4-0.2,0.5-0.2c-0.8,0.1-1.1-0.1-1.1-0.4c1.6-1.2,2.7-2.6,3.5-2.7
						c-1,0.7-0.9,0.9-1.3,1.4l1.5-1.4c1.9-0.6-2.1,1.9-1.8,2.3c3.1-2.7,6.5-6,9.2-7.8c0.9,0.1-5.7,4.6-2,2.6l-4,2.7
						c3.6-1.4-2.4,1.7,1,0.6c5.2-3.7,5.5-4.6,10.7-8.2c0.9-1.2-0.7-0.2,0.2-1.3c3.4-3,5.1-3.6,6.6-4.2c1.4-0.5,2.6-1,5-3.2
						c1.2-1.3,1.2-2.4,5.5-4.4l-1,1.5c2.6-1.5,3.3-2.2,3.9-2.8c0.7-0.6,1.4-1.3,4.4-2.5c-0.9,0.8-4.1,2.5-3.3,2.2
						c3.9-1.5,2.4-1.8,5.2-3.3l0.9,0.3c5.8-3.1,12.1-6.8,18.3-10.8c-0.2,0.4-1.2,1.2,0.4,0.5c3.9-2.7,8-5.7,11.6-9.3
						c3.7-3.6,6.7-7.9,8.7-12.2c0.2-0.6,0.3-1.2,0.4-1.8l0.2-0.9l0.1-0.4l0.1-0.3c0.2-0.5,0.7-0.8,0.5-0.2c0.3-0.5,0.6-0.7,0.6-0.9
						c0.1-0.1,0-0.2-0.1-0.1c-0.2,0-0.6,0.2-0.3-0.4c0.3-0.3,0.5-0.5,0.7-0.7c0.2-0.2,0.4-0.2,0.5-0.3c0.2-0.1,0.2,0.1-0.1,0.5
						c0.8-0.9,2.1-2,3.7-2.9c1.6-1,3.5-1.8,5.5-2.5c4-1.5,8.3-2.4,11.5-2.7l-1.2,0.4c4.9-0.7,5.3-2.3,9.9-2.5l-0.9,0.3
						c10.7-1.5,22.5-3.7,30.9-4.3c0.7-0.6,3.4-0.9,5.9-1.4c2.6-0.4,5-1,5.2-1.6c3.1-0.4,4.2-0.5,5.7-0.6c1.4-0.2,3.2-0.4,7.5-1.5
						c2.3-0.7,3.2-1.8,5.9-2.9l0.3,0.6c1.2-0.7,2.3-1.4,3.5-2.1c0.7-0.1,1.5-0.1,2.3-0.2c0.8-0.5,1.6-0.9,2.5-1.4
						c-1,0.5-2.3,0.8-2.2,0.6c1.9-1,4.3-2.2,6.2-3.2c1-0.5,1.8-1,2.4-1.2c0.6-0.3,1-0.5,1.1-0.4c2.7-2.2,5.2-4.9,7.2-8
						c0.1,0.3-0.9,1.9-1.8,3c0.8-1.2,1.3-1.8,1.6-2.2c0.3-0.3,0.4-0.4,0.6-0.4c0.1,0,0.2-0.1,0.5-0.4c0.2-0.3,0.7-0.9,1.2-2.2
						c-0.5,0.6-0.1-0.5-0.2-0.7c0.1-0.1,0.2-0.3,0.3-0.4c0.1-0.1,0.2-0.2,0.3-0.4c0.2-0.3,0.4-0.6,0.6-0.9c0.2-0.3,0.6-0.6,0.8-1
						c0.3-0.3,0.6-0.7,1-1c0.4-0.4,0.7-0.7,1.1-1.1c0.4-0.4,0.8-0.7,1.2-1c0.8-0.7,1.6-1.3,2.4-2l-0.3,0.8c2.8-2,6-4,9.5-5.8
						c3.5-1.8,7.2-3.4,11-4.9c-2.8,0.9-2.5-0.1-0.2-1l1.1,0.3c1.3-0.9-2.4,0.6,0.4-0.9c1.5-0.5,2-0.5,2-0.2c0,0.2-0.6,0.6-1.4,1
						c1.1-0.5,2.3-0.9,3.4-1.4c0.3,0.1-0.5,0.5-0.7,0.8c1.3-0.9,6.3-1.3,8.2-2.5l0.3,0.1c3.9-1,6.8-1.7,9.5-2.3
						c2.7-0.6,5.3-1,8.5-1.5c0.1-0.6,2.7-0.7,4.6-1.4c4.9-0.2,10.3,0.1,16.1,0.5c4.1,0.2,1.2-0.3,3.1-0.5c0.3,0.4,6,1.5,2.9,1.3
						c0.9,0.2,1.6,0.2,2.3,0.4c0.7,0.2,1.4,0.3,2,0.5c1.3,0.2,2.3,0.6,3.5,1c2.3,0.7,4.8,1.5,8.6,3.7c-0.7-0.7-1.5-1.3-1-1.2
						c1.4,0.8,2.9,2.1,2.5,2.2c-0.1-0.1-0.2-0.1-0.4-0.2c1,0.7,2,1.4,3,2.2c1,0.9,2,1.9,2.9,2.9c1,1,2,2,2.9,3.1
						c1,1,1.9,2.1,2.8,3.2c1.8,2.1,3.5,4.2,5.2,6.1c1.6,1.9,3.2,3.7,4.7,5l-0.3-0.3c1,1,2,2,2.9,3l2.8,3.1c2.3,3.1-1.7-1.6-0.2,0.9
						c0.8,0.8,1.5,1.6,2.2,2.4c0.7,0.8,1.2,1.6,1.8,2.3c1.1,1.5,2.1,2.9,3.1,4.3c1.9,2.8,3.6,5.5,5.9,8.5c1,2.8,3.9,7.1,7.1,11.5
						c3.2,4.4,6.9,8.8,9.2,12.2l0-0.6c1.7,1.3,1.5,2,2.5,3.2c0.1-0.3-1.3-1.9-0.3-1.1c0.8,0.8,1.5,1.6,2.3,2.4
						c0.8,0.8,1.6,1.5,2.4,2.3c0.8,0.8,1.6,1.5,2.4,2.3l1.2,1.2l1.3,1.1c1.7,1.4,3.5,2.9,5.2,4.3c1.8,1.3,3.7,2.7,5.5,4
						c0.9,0.6,1.8,1.4,2.8,2l2.9,1.8c1.9,1.2,3.8,2.4,5.8,3.6c2,1.1,4,2.1,6,3.2c2,1.1,4,2.1,5.9,3.1c2.8,1.4,3.8,1.5,5,1.6
						c1.1,0.2,2.5,0.6,5.8,2.9l-2.3-0.5c11.6,5.5,22.7,13.5,33.6,19.8c-0.7-0.3-0.8-0.1-1.9-0.8c2,1.9,8.3,5.4,8.5,5.2
						c1.6,1.1,0.2,0.5,1.1,1.4c2.1,1.7,5.9,3.2,6.9,4.4c0.2,0.2-0.7-0.3-1.1-0.5c1.6,0.8,6.7,4.6,5.6,3.2c3.8,2.9,7.7,4.9,10.6,7.4
						c2.4,0.9,6.5,4.9,7.7,4.6c-0.8,0.5,6.4,5.4,9.1,6.8c-1-0.4,2,1.7,0.8,1.4c2.8,2,5.5,3.7,5.3,2.9c4.5,4.5,10.9,6.7,13,9.9
						c8.6,5.6,16.4,10.8,24,16.1c-0.8,0.5-8.3-5.9-8.5-4.9c7.3,4.8,11.8,7.2,18.6,12.5c1.7,1.4-1.3-0.4-2-0.8
						c7.2,4.9,13.5,10.1,20,14.3c-0.1,0.1-0.8-0.4-1.5-0.8c1.2,0.9,2.8,2.2,2.9,1.8l-1.3-0.8c-1.6-1.9,5.6,2.6,6,2.5
						c-2.8-0.6,6,4.8,1.8,3.5c0.9,0.5,2,1.1,2,0.8c1.1,1,1.4,1.4,0,0.7c4.5,3.1,3.2,1.6,7.2,4.6c-0.1,0.1-1-0.4-1.5-0.5
						c2.2,1.2,4.5,2.4,7.7,5c-0.3-0.1,0,0.4-1-0.4c5.8,4.3,10.4,6.5,16.5,11.6c-2.4-0.7,2,1.8,1.9,2.7l3.5,2.4l-1.1-1.3
						c3,2.3,5.9,3.8,8.3,5.9l-2.4-1.4l5.6,4.1l-3-2.6c3.2,2,0.3-1,4.1,2.2c-0.8-0.5,3,2.3,4.2,3.8l0,0c1.6,0.9,3.3,1.9,5.3,3.7
						c0.4,0.6-1,0.3-0.7,0.7c1.8,0.6,7,5.1,9.3,6c-0.7-0.3-1-0.1-0.8,0.2l1.5,0.5c1.3,1.2,1.4,1.4,1,1.5c4.1,3.2-0.7-1.8,3.9,2.3
						c-0.4-0.3-0.3-0.1-1.1-0.6c4.8,3.9,9.7,7,14,10.7c0.9,1.6-4-2.9-2.9-1.2c6.6,4.9,14,9.6,20.1,14.6l-1.1-1
						c1.5-0.2,4.3,4,7.8,6.1c-0.8-0.5-1.4-0.3-1.1-0.3c4.2,3.5,8.9,6.6,15.6,11.4l-1-0.4c2.4,2.2,6.5,5.3,9.2,7.5
						c1,0.4,2.5,1.7,1.8,0.6c7.4,7.8,16.5,11.9,23.1,18.8c-0.9-0.7-2.3-1.5-1.6-0.9l6.5,4.8c-0.2-0.8-0.7-0.9-1.8-2.2
						c1,0.4,2.9,1.7,4.4,2.9c-3-2-0.4,0.6,0.6,1.8c-0.1-0.3,0.4-0.1,0.4-0.3c2.8,3.3,1.1-0.3,5.3,3.7l-0.4,0
						c1.8,1.2,3.5,2.2,5.3,3.7c0.4,1-1.9-1.2-2.3-1c2.6,2,5.7,3.2,7.6,5.5c-1.2-0.7-2.7-2-3.9-2.7c2.1,2.5,2.5,2.6,4.3,4.2l-0.2-0.2
						l4.1,3.7l-1-1c4,1.5,6.6,5,11.5,7.7c-4.7-2.7-1-0.2-1.7,0.1c1,1,2.5,2.5,1.9,2.2c2.3,1.2,3.1,3,6.4,4.8c0,0.3,2.1,1.8,1.4,1.8
						c2.7,2-0.4-0.8,0-0.8c4.5,2.7,9,8.3,15.3,12.3c5.2,3.8,6.6,4,11.4,7.6c1.4,1.5-1.7-0.5-1.7-0.5c2.3,2.3,4.2,3.8,6.7,5.6
						c-0.6-0.3-0.2,0.3,0.4,1c1.9,1.5,1.7,0.5,4,2.8c-0.6-0.2-1.3-0.4-2.4-1c2.3,1.7,4.8,3.3,7.2,5.1c0.4,0.8-1.7-0.8-2.7-1.3
						c2.7,2.1,6.8,5.4,8,5.7l-1.5-1.6c0.9,0.8,0.2,0.8-0.6,0.2c-2.5-1.6-3-2.9-3-3.1l1.7,1.3c-0.9-2.3-6.7-5.4-9.9-8.2l1.9,0.5
						l-3.8-2.3c-0.6-0.8-0.8-1.5,0.9-0.3c-2.1-2.3-2.3-1.5-4-3.6c-0.2-0.2-0.1-0.2,0.2,0l-2.5-1.7c0.6,0.2,0-0.8,1.3,0.5
						c-3.9-3.8-7.1-5.1-8.3-6.9l0.4,0.2c-6-4.5-0.9,0-5.8-3l-2-3.6l-1,0c-0.6-0.5-1.7-1.5-1.4-1.5c-2.5-1.5,0.2,0.5-1.3-0.2
						c-2.5-2.8-8.2-6.3-8.2-7.6c-1.3-0.5,2.6,2.5-0.8,0.3c-0.2-1.5-3.7-2.8-6-5.3c1.2,0.2,3.5,2.5,1.1,0c-2.2-0.6-5-4.3-7.4-6
						c-0.6,0.5-5.1-3.7-9-6.5c0.4,0-6.8-6-10.2-9l0.2,0c-1.1,0-4.7-3-7.4-4.9c0.4-0.3,1,0,2.5,1l-2.5-2c-0.7-0.3-1.6-0.8-3.2-2
						l1,0.1c-3.3-2.6-7.1-4.8-11.1-8.4c-0.6,0.2,2.5,3.8-2.2,0.5c0-0.3,0.1-0.9,1.4,0c-0.4-0.3-1.5-0.9-2.2-1.6l2.1,1.1
						c-1.8-1.7-1.3-0.5-2.8-1.7c0.3-0.3-1-1.1-0.6-1.2c0.4,0.3,1.3,1.2,1.9,1.5c-1.7-1.4-3.7-3.3-4.2-4.1c0,0.3-0.3,0.4-1.6-0.5
						c-3.3-2.6-0.8-1.3-2.7-2.9c-1-0.4-2.9-2.3-3.3-1.9c-1-0.8-1-1.1-1.3-1.5c-1.9-1.1-8.1-6.2-6.5-4.2l0.4,0.4
						c-0.1-0.1-0.2-0.1-0.3-0.2c0,0,0,0,0,0l0,0c-6-3.9-11.5-9.4-17.3-13.6l0.1-0.1c-3.5-2.4-7.5-5.7-10.2-7.2c-1-0.8-2.1-2.1-1.5-2
						c-2.7-1.9-3.1-1.9-6.6-5c2.8,1.7-0.7-0.9,2.8,1.8c-3.2-2.7-3.8-3.5-7.7-5.9c1.5,0.5-2.1-2.4-3.8-3.5l2.1,2.1
						c-1.8-1.3-3.4-2.5-4.9-3.8l1.3,0.1c-6.3-5.9-13.2-8.4-17.5-13.4c-2.1-1,3.5,3.1,1.6,2.3c-3.1-2.5-5.8-5.7-6.8-6.5
						c-4.1-3.6-4.6-2.3-9-5.9c0.4,0.6,0.6,1.5-2.9-0.8c-3.1-2.5-3.3-3.7-1.2-2.4c0.8,0.6,1.1,0.9,1,0.9c1.1,0.7,2.5,1.6,1.4,0.5
						l-0.6-0.1c-1.4-1.4-5.8-4.7-4.5-4.2c-2.5-1.6-1.3-0.5,0.4,1c-3.8-3.3-6.3-4.8-10.4-8.1c0.6,0.6,1,1.3,0.4,0.8
						c-5.9-4.9-3-1.7-7.2-4.7c-2.1-2.1,1.4-0.1-3-3c-2.4-2.1-0.2-0.9,1-0.3c-4.1-2.5-6.9-5.6-9.1-7.3l2.1,1.4
						c-1.3-0.8-2.3-1.6-3.3-2.3l0.9,1.2c-1.1-1-2.1-1.7-2-1.8c-1.4-0.7,0.5,1.3-2.2-0.1c-1.4-1.4-5-3.4-5.1-4.3
						c4.8,3.9-0.2-0.9,4.1,2.1c-0.9-0.5-1.8-1.3-3-2.2c-0.1-0.2,0.2,0,0.6,0.2c-4.4-4-2.6-1.1-7.5-4.7c0.8,0.2-0.7-1.4-1.6-1.9
						c2,1.5,0.6,1.2-1.4,0c-3-2.6-3.6-2.4-5.2-3.6l1.8,1.5c-0.9-0.2-2.4-1.4-4.7-2.9c0-0.4,2.1,1.3,1.4,0.6
						c-2.8-1.3-5.1-4.6-8.8-6.8c-1.4-1.4,0.2-0.6-1.1-1.8c-4.1-2.4-3.9-3.4-8.1-6.1c0.9,1.2,1.2,1.3-2-0.4l6.8,4.6l-4.7-2.6
						c2,1.5,4.4,2.9,5.5,3.8c-2.3-1.2-2-1.1-1.3-0.1c-2.3-2.6-5.7-3.6-8.6-6.4l0.8-0.9c-4.5-3.9-8.8-5.7-14.9-10.4l1.9,1.6
						c-1.1-0.2-3.9-2.7-6-4c0.4-0.2-0.8-1.2-1.5-2c-0.1,0.3-4.5-3.3-5.6-3.1l-2.5-2.4c-4.9-3.8-6.4-3.2-11.2-6.7
						c1.7,0.7-0.3-1.1,3.1,1c-1.6-1.2-3-2.2-3.2-2c-0.8-0.9-4.8-2.7-6.1-4.1c-0.8-0.3-1.2-0.2-3.1-1.5c-0.2-0.2,0.1-0.2,0.1-0.2
						c-0.1,0.2-3-1.8-1.7-0.3c-4.3-4.5-14.1-9.7-17.9-13.6c-3.7-2.3-8-5.2-11.3-7.3c0.3,0,0.1-0.2,0.7,0.3c-4.3-3.3-3.4-0.9-8.3-4.7
						c-2.3-2.3,2.9,1.5,1.4,0.2c0-1.6-6.3-4-9.4-6.9l0.9,0.5c-2.4-2.1-6.8-3.8-11.1-6.6c0,0,0.3,0,0.1-0.2c-3.4-1.3-9.2-4.7-13.6-7
						c1.6,0.4,2.1,0.9,1.5,0c-2-1.1,0.1,1-3.8-1.1c-1.1-1-3.8-2.8-3.9-3.5l3.7,2.1c-1.5-1.7-4.8-2.7-6.7-3.8l0.4-0.1
						c-2.9-1.5-4.5-2.1-6.1-2.6c-1.6-0.6-3.3-1.2-6.4-2.7l0.5,0.5c-3.7-1-2.6-1.8-6.3-3l-0.6-1.2c-1.1-0.5-3.1-1.5-5.3-2.5
						c-2.2-1.1-4.6-2.2-6.5-3.5c0.6,0.2,1.3,0.6,2.1,1c0.8,0.4,1.7,0.8,2.7,1.2c1.8,0.9,3.7,1.8,5.2,2.4c-1.1-0.6-2.9-1.7-4.6-2.6
						c-0.9-0.5-1.7-0.9-2.4-1.2c-0.7-0.3-1.2-0.6-1.5-0.7c0.8,0.5,2,1,2.8,1.6c-0.7-0.3-1.5-0.5-2.3-0.9c-0.8-0.4-1.6-0.8-2.5-1.3
						c-1.7-1-3.6-2.1-5.6-3.6c0.8-0.3-1.6-2.4-4.5-4.8c-0.7-0.6-1.4-1.3-2.1-1.9c-0.7-0.7-1.3-1.3-2-2c-1.2-1.3-2.2-2.4-2.6-3.3
						c-1.5-1.5-3-3-4.5-4.6c-1.4-1.7-2.7-3.4-4-5.2c-1.3-1.8-2.6-3.7-3.9-5.6c-1.3-1.9-2.6-4-4.1-6.1c1,3.6-1.7-2.4-2.4-1.2
						c-1.4-1.9-1.9-2.7-1.9-2.9l-3.4-6.4c-0.7-1.6,1.5,1.7,1.6,1.4c-2.9-4.4-0.8-2.1-2.5-5.1c0.1,0.8-1.6-1.1-3.2-3.7l2,3.7
						c-2.4-2.8-3.1-4.2-3.8-5.7c-0.7-1.4-1.5-2.8-4.1-5.6l1.7,1.6c-0.6-0.7-1.5-1.8-2.4-3c-1-1.2-2.2-2.5-3.3-3.8
						c-1.2-1.3-2.4-2.6-3.4-3.7c-1.1-1.1-2.2-1.9-3-2.4c-0.4-0.6-0.7-1.5,0.5-0.3c-1.5-1.7-3.2-3.4-4.9-5.1
						c-1.8-1.7-3.7-3.3-5.5-4.8c-1.8-1.6-3.5-3.2-5.3-4.6c-0.9-0.8-1.8-1.3-2.7-1.9c-0.4-0.3-0.8-0.6-1.3-0.9
						c-0.4-0.3-0.8-0.5-1.2-0.7l0.8,0.1c-0.8-0.4-1.6-0.6-2.3-0.9c-0.8-0.3-1.6-0.5-2.6-1.1c0.2-0.1,0.8,0,0-0.3
						c-0.2-0.1-0.6-0.2-1.1-0.3c-0.5-0.1-1.1-0.3-1.8-0.4c-0.7-0.2-1.3-0.3-2-0.5c-0.7-0.2-1.3-0.3-1.9-0.5c0.7,0.1,1.3,0.1,2,0.2
						c-2.2-0.7-4.2-1.2-6-1.4c-1.8-0.3-3.5-0.4-5.2-0.4c-1.6-0.1-3.2,0-4.9,0c-1.6,0.1-3.3,0.1-5.2,0.2c0-0.4-1.7-0.7-3.9-0.8
						c-2.2-0.1-4.8,0-6.6,0.1l0.1-0.1c-5.2,0.5-9.5,1.3-13.7,2.4c-4.2,1.1-8.2,2.4-12.7,3.9c-3,0.4-7.8,1.8-12.9,3.9
						c-5.1,2-10.5,4.7-14.8,7.2c1.3-0.7,0.2,0.7-1.2,1.7c-0.5,0.3-1,0.7-1.6,1.2c-0.5,0.4-1.1,0.9-1.5,1.4c-0.9,0.9-1.6,1.5-1.8,1.1
						l0.6-0.5c-0.2,0.1-0.5,0.2-0.8,0.3c-0.3,0.2-0.6,0.4-0.9,0.6c-0.6,0.5-1.3,1.1-2,1.9c-0.3,0.4-0.7,0.8-1,1.2
						c-0.3,0.5-0.6,1-0.9,1.4l-0.4,0.7l-0.3,0.5c-0.2,0.4-0.4,0.7-0.6,1.1l0.6,1c-1.5,1.6-3.2,3.4-5.2,5.1c-2,1.7-4.2,3.3-6.5,4.7
						c-4.5,2.8-9.1,4.7-11.7,4.9c-2,1-4.6,1.8-6.6,2.6l0-0.6c-5.9,1.5-8.9,2.1-16.3,3.7l1.4-0.7c-4.2,0.8-5,2.6-8.9,3.3l-1.3-0.6
						c-7.4,1.2-15.1,1.6-22.3,3.5c0.1-0.1,0.3-0.4,1.5-0.6c-1.8,0.3-5.2,0.7-8,1.2c-2.8,0.5-5,1.1-4.2,1.5c-0.2-0.7-7.8,1.4-11.7,3
						l0.5-0.7c-1.6,0.8-2.4,1.3-3.4,1.8c-1,0.5-2.1,1-4.3,2.1c-1.1,0.5-1.1,0,0.4-0.5c-1.9,0.7-2.5,1.3-3.2,1.8
						c-0.3,0.3-0.7,0.6-1.2,1c-0.5,0.4-1.2,1-2.1,1.8c0.3-0.6,0.7-1.1,1.1-1.6c-1.7,1.4-2.2,2.4-2.6,3.1c-0.2,0.4-0.3,0.7-0.4,1.1
						c-0.1,0.4-0.2,0.9-0.3,1.4c-0.2,0.6-0.4,1.3-0.7,2c-0.3,0.7-0.7,1.5-1.1,2.2c-0.8,1.4-1.7,2.4-2.1,2.5c0,0.6-0.8,2.6-2.3,4.2
						c-0.3,0.1,0.1-0.6,0.3-1c-2.1,2.4-3.6,4.1-5.1,5.6c-1.5,1.5-2.9,2.8-4.8,3.9c-0.2-0.1-0.5,0-0.8,0.2c4.2-2.9,7-5.8,6.8-5.5
						c-0.3-0.3-3.3,2.3-1.5-0.4c-1,1.2-2.4,2.9-4.2,4.4c-1.7,1.5-3.6,3-5.4,4c-0.2,0.1-0.4,0.1-0.5,0.1l0.3-0.3
						c-0.8,0.4-1.5,0.9-2.1,1.4c-1.2,0.6-1.9,0.9-3,1.5c-0.6-0.1-4.3,2.1-6.1,3c0.4,0.4-2,1.6,0.4,0.8c-0.3,0.1,0.3-0.2,1.5-0.9
						c0.3-0.2,0.6-0.3,0.8-0.5c0,0-0.1,0.1-0.1,0.1c1.2-0.7,2.7-1.5,4.5-2.5c-1.3,1-2.7,2.1-4.9,2.9c-0.8,0.8-1.6,1.7-2.2,2.2
						c-2.9,0.6-8,2.8-8.9,2.7c-2.8,1.6-6.1,3.5-9,5.5c-2.9,1.9-5.5,4-6.8,5.6c-1.4,1.2-1.9,1-2.5,1.2c0.8-0.7,1.8-1.4,2.2-1.9
						c-2.8,2.3-8.7,6.4-8.9,7.5c-3.9,2.5,1.7-2.1-3.3,1.8l0.5-0.7c-10.6,6.5-14.8,13.7-26.6,20.9c0.8-0.5,1.2-0.8,1.4-0.8
						c-12.7,9.1-25.1,20.2-38.3,28c-3.7,2.3-3.8,3-5.9,4.7l-1.1,0l-3.4,3.1c-2.6,2-5.2,3.1-7.9,4.4c-2.7,1.4-5.6,2.7-8.9,5.1
						l1.1-0.2c-2.5,1.5-8.1,4.6-7.8,4c-0.2,0.2-0.7,0.8-1.8,1.2l-0.2-0.2c-2,1.3-4.1,2.4-6.2,3.6c-2.6,1.1-2.5,0.7-2.7,0.5
						c-0.1-0.1-0.3-0.2-0.9,0c-0.6,0.2-1.6,0.6-3.5,1.3c-2.7,1.2-7.6,4.1-6.5,3.9c1.1-0.4,3-1,3.2-0.7l-2.5,1.2
						c-0.1,1.1-1.8,2.8,4.8,0.8l4.2-2.3c0.5,0,1.1-0.2,1.6-0.2c-1.2,0.6-2.5,1.1-3.7,1.6c1.1-0.2,2-0.6,2.8-1
						c0.7-0.4,1.4-0.9,2.1-1.4c0.4,0.1,1.1-0.1,2-0.4l3.9-2.8c0.7,0.1-1.6,1.6,1.4,0.4c1.8-1.4-2.2,0.2,0.9-1.7
						c2.2-0.7,1.8-0.1,4-1.6c0.4,0,0,0.4-0.9,1c1-0.7,2.4-1.4,3.6-2.2c1.3-0.7,2.3-1.5,2.7-2c2.3-0.7,7-4.1,7.2-3.3
						c0.5-0.6,3.2-2.8,5.1-4c-1.4,1.5,0.3,0.4,2.4-0.8c2.1-1.3,4.4-2.8,4.3-2c1-1.2,3.2-2.8,5.6-4.5c2.4-1.7,5.1-3.6,7.1-5.3
						c-0.2,0.2-0.6,0.7-1,0.9c2.5-1.6,3.3-1.9,5-2.9c-0.2-0.9,3.5-3.7,5.2-5.6c3.3-1.6-1.2,2.1,0.1,2c-0.5-0.4,4.7-4.3,3.4-4
						c2.5-1.3,2-1.2,3.6-1.6c-0.2-1.1,2-1.7,3.4-3.6c3.5-2,1.4,0.1,4.7-2.8C409.5,488.7,406.6,491.4,406.6,491.4z M491.6,431.7
						C491.6,431.7,491.6,431.7,491.6,431.7c-0.8,0.5-1.4,0.9-1.8,1.2C490.2,432.6,490.7,432.3,491.6,431.7z M498.9,426.4
						c-0.9,0.7-1.9,1.5-3.1,2.4c-0.4,0-0.2-0.3,0.5-0.9C496,428.3,497.8,427.2,498.9,426.4z M481.2,433.2c1.2-0.7,1.6-0.8,1.8-0.8
						c-0.6,0.3-1.2,0.7-2.1,1.2c0,0-0.1,0.1-0.1,0.1C480.9,433.5,481,433.3,481.2,433.2z"/>
					<path class="st1" d="M479.4,435c-0.2,0.1-0.3,0.2-0.5,0.3c0.3-0.1,0.5-0.2,0.8-0.3c0.1-0.1,0.2-0.3,0.4-0.4
						C479.8,434.7,479.6,434.9,479.4,435z"/>
					<path class="st1" d="M1130.2,655.5l-0.1-0.1c0.1,0.1,0.2,0.2,0.3,0.3C1130.2,655.6,1130.2,655.6,1130.2,655.5z"/>
					<polygon class="st1" points="605,383.6 605,383.5 604.3,383.9 					"/>
					<path class="st1" d="M1166.9,686.9c0,0.1,0.2,0.2,0.4,0.5C1167.3,687.4,1167.1,687.2,1166.9,686.9z"/>
					<path class="st1" d="M1183.2,700l2.2,2C1184.4,701.1,1183.7,700.5,1183.2,700z"/>
					<path class="st1" d="M1195.5,710.2c0.2,0.1,0.3,0,0.4,0l0,0L1195.5,710.2z"/>
					<path class="st1" d="M993.3,554.9c-0.2-0.1-0.4-0.2-0.5-0.3C991.6,553.7,992.4,554.3,993.3,554.9z"/>
					<path class="st1" d="M1054.7,599.4c-0.7-0.4-1.4-0.8-2.1-1.3C1053.7,599,1054.5,599.7,1054.7,599.4z"/>
					<path class="st1" d="M924.3,505.7C924.4,505.7,924.3,505.7,924.3,505.7c-0.1-0.1-0.3-0.2-0.4-0.3L924.3,505.7z"/>
					<path class="st1" d="M1049.8,596c1,0.9,1.9,1.6,2.8,2.1C1051.8,597.5,1050.8,596.6,1049.8,596z"/>
					<path class="st1" d="M1249,754.6l0.6,0.5c0,0,0.1,0,0.1,0L1249,754.6z"/>
					<path class="st1" d="M1249.7,755.1l0.7,0.5C1250.1,755.3,1249.8,755.1,1249.7,755.1z"/>
					<path class="st1" d="M1251.8,756.7l-1.5-1.1C1250.8,756,1251.4,756.5,1251.8,756.7z"/>
					<path class="st1" d="M1232.9,740.7l-0.3,0C1232.7,740.8,1232.8,740.8,1232.9,740.7z"/>
					<path class="st1" d="M1227.9,736.7c1.2,1,2.7,2.8,4.4,4.1l0.3,0C1231.6,740.3,1229.3,737.3,1227.9,736.7z"/>
					<path class="st1" d="M1208.6,717.7l4.1,3.5c-0.6-0.8-1.4-1.8,0.6-0.3C1208.4,716.1,1214.1,722.2,1208.6,717.7z"/>
					<path class="st1" d="M1195.8,706.9c2.3,1.7,0.2-0.3,0.4-0.3C1194.6,705.6,1194.2,705.4,1195.8,706.9z"/>
					<path class="st1" d="M1100.6,631.9l0.5-0.2C1099.3,630.4,1101,631.8,1100.6,631.9z"/>
					<polygon class="st1" points="1080.6,619.9 1082.1,621.4 1083.2,621.7 					"/>
					<polygon class="st1" points="1072,608.6 1072.8,609.2 1069.7,607.1 					"/>
					<path class="st1" d="M907.8,488.2l0.2,0.9C909.3,489.8,910,489.4,907.8,488.2z"/>
					<path class="st1" d="M832.6,442.5c-0.7-0.7-2.8-2-4.3-2.4C830,441,831.6,442.1,832.6,442.5z"/>
					<polygon class="st1" points="622,367.5 622.9,366.1 622,367.3 621,368.5 					"/>
				</g>
			</g>
		</g>
	</g>
</g>
<g>
	<g>
		<g>
			<g>
				<g>
					<path class="st1" d="M424.1,472c0.3,0.1,0.5-0.3-0.2-0.8l-0.8,0.1L424.1,472z"/>
					<path class="st1" d="M421.1,467.7c-0.9-0.3-2-0.6-2,0.2c1.1,0.1,1.1,0.4,2.3,0.5c0.6,0.4,0.9,1,0.6,1.1c0.3,0,0.8,0.9,1.4,0.8
						c-0.4-1-1.3-1.9-2.6-2.4C420.7,467.7,421,467.8,421.1,467.7z"/>
					<path class="st1" d="M366.4,418.2l0.3,0.4C366.6,418.5,366.5,418.4,366.4,418.2z"/>
					<path class="st1" d="M330.7,389.4c0.3,0.2,0.5,0.2,0.5,0.2C330.9,389.4,330.7,389.3,330.7,389.4z"/>
					<path class="st1" d="M323.9,385c0.2,0.1,0.3,0.2,0.4,0.2C324.2,385.1,324.1,385,323.9,385z"/>
					<path class="st1" d="M366.4,418.2l-0.8-1C365.4,417.4,365.9,417.8,366.4,418.2z"/>
					<path class="st1" d="M412.4,462.2c0.2,0.1,0.4,0.2,0.6,0.3C412.9,462.4,412.7,462.3,412.4,462.2
						C412.5,462.2,412.5,462.2,412.4,462.2z"/>
					<path class="st1" d="M381.9,431.1l0.3,0.2c0.1,0,0.3,0,0.4,0L381.9,431.1z"/>
					<path class="st1" d="M393.5,441.3c-0.2-0.2-0.7,0.1-1,0.2c0.3,0,0.6,0,0.8,0.2C393.5,441.6,393.5,441.5,393.5,441.3z"/>
					<path class="st1" d="M411.3,458.2l0.4,0.2C411.6,458.4,411.4,458.3,411.3,458.2z"/>
					<path class="st1" d="M373.6,423.7c0-0.1,0-0.2,0-0.2C373.6,423.6,373.6,423.6,373.6,423.7z"/>
					<path class="st1" d="M13.1,210.4C13.1,210.4,13.1,210.4,13.1,210.4C13,210.4,13,210.4,13.1,210.4z"/>
					<path class="st1" d="M0.1,197.9l0.2,0.1c0.1-0.1,0.2-0.1,0.2-0.2L0.1,197.9z"/>
					<path class="st1" d="M310.9,379.1C310.9,379.1,310.9,379.1,310.9,379.1C311.3,379.2,311.1,379.1,310.9,379.1z"/>
					<path class="st1" d="M202.7,315.7c1.5,0.6-2.5,0.5-0.2,1.2C202.3,316.7,204.6,316.2,202.7,315.7z"/>
					<path class="st1" d="M412.2,461.9c-0.2-0.1-0.3-0.3-0.5-0.4C411.9,461.7,412,461.8,412.2,461.9z"/>
					<path class="st1" d="M202.5,316.9L202.5,316.9l0.2,0.1C202.6,317,202.5,317,202.5,316.9z"/>
					<path class="st1" d="M289.6,356.7c0,0.1,0.1,0.3,0.1,0.5C289.8,357.1,289.8,357,289.6,356.7z"/>
					<path class="st1" d="M303.1,376.5l-0.5-0.4C302.9,376.3,303,376.5,303.1,376.5z"/>
					<path class="st1" d="M276.3,353.2c-0.3-0.1-0.4-0.2-0.9-0.1c0,0,0.1,0.1,0.1,0.1C275.7,353.1,275.9,353.1,276.3,353.2z"/>
					<path class="st1" d="M263.3,351.8c0.1,0.1,0.1,0.1,0.2,0.2c0.1,0,0.3,0,0.4,0L263.3,351.8z"/>
					<path class="st1" d="M45.2,234.7c-0.1-0.3-0.2-0.6-0.2-0.8C44.9,234.3,43.3,233.2,45.2,234.7z"/>
					<path class="st1" d="M412.6,462c-0.2,0.1-0.3,0-0.5-0.1c0.1,0.1,0.2,0.2,0.4,0.3C412.6,462.1,412.7,462.1,412.6,462z"/>
					<path class="st1" d="M275.3,357.6l-2-0.3C273.8,357.4,274.6,357.5,275.3,357.6z"/>
					<path class="st1" d="M119.9,293.5l-0.4-0.2C119.6,293.4,119.7,293.5,119.9,293.5z"/>
					<path class="st1" d="M266.9,356.8c-0.4-0.2-0.8-0.4-1.2-0.5c-0.1,0-0.2,0.1-0.3,0.1L266.9,356.8z"/>
					<path class="st1" d="M45,233.9L45,233.9L45,233.9z"/>
					<path class="st1" d="M33.3,226.4c1.6,1.2,1.2,0,1.8-0.1c2,1.3,0.5,1.1,1,1.9c1.3,0.8,2.6,0.9,3.5,1.6c0,0.1,0.1,0.3-0.2,0.3
						c1.6,0.5,3.7,2.9,5.6,3.4c0.1,0.1,0.1,0.2,0.1,0.3c0-0.5,0.2-0.8,0.4-1c0.7,0.5,1.6,0.7,1.6,1.3c-0.4-0.4-0.6-0.2-0.9-0.3
						l0.9,0.4c0.2,1.1-1.2-0.6-1.5-0.2c1.6,1,3.6,1.8,4.6,2.8c-0.2,0.7-2.7-1.9-1.6-0.2l-1.6-1.5c0.6,1.9-1-0.9-0.5,1
						c2.1,1.9,2.7,1.7,4.9,3.6c0.7,0.1,0.2-0.6,0.9-0.5c3.6,2,1.5,3.3,4.4,4.5c0.9,0.1,1.7-0.4,3,1.3l-1,0.2
						c2.1,1.8,1.9,0.1,3.9,2.3c-0.6-0.1-1.9-1.2-1.6-0.8c1.1,1.6,1.3,0.5,2.4,1.4l-0.2,0.7c2.4,1.8,5.2,3.4,7.9,5.3
						c-0.3,0-0.8-0.1-0.4,0.5c3.4,2.3,6.8,5.5,9.7,8.3l1.6,0.5c0.3,0.2,0.3,0.6,0,0.5c1.1,1.1,0.3-0.2,1,0c0.7,0.5,0.7,1,0.2,0.8
						c2.5,1.3,6.8,4,8.6,6.3l-0.5-0.2c1.6,1.6,2.7,0.6,4,2.4l-0.4-0.2c3.7,3.2,8.2,6.2,10.6,9.2c1.1-0.2,3.6,3.3,4.5,2.5
						c1.8,2.2,1.1,1.9,3.9,4.6c0.8,0.7,1.7,0.4,2.8,1.1l-0.4,0.5l1.8,0.6l0.3,1.2l1.1,0.6c-0.4-0.3-0.6-0.9-0.5-0.9
						c1.7,0.9,3.4,3.2,3.2,3.5l3.9,2.3c-0.2,0.1-0.9-0.3-1.5-0.5c2.3,1,0,0.8,2,1.7c-0.1-0.3,0.4-0.2,0.5-0.3c0.6,1,2.6,2.5,4.2,3.5
						l-0.5,0.1c2.6,2.1,5.8,4.1,8.8,6.3c-1-1-0.3-1.4,0.6-0.8l0,0.8c0.8,0.1-0.8-0.9,0.7-0.4c1.1,0.9,0.3,1.1-0.5,0.8l1.5,0.8
						c0,0.2-0.4,0.1-0.6,0.2c0.8,0.1,2,2.3,3.2,2.3l0,0.2c0.8,0.6,1.4,1,2,1.4c0.7,0.4,1.3,0.8,1.9,1.1c0.6,0.4,1.2,0.6,1.9,0.9
						c0.3,0.2,0.6,0.3,1,0.5c0.3,0.1,0.7,0.3,1.1,0.4c0.3-0.5,1.4,0.2,2.5,0c2.1,1,4.6,2,7.4,2.4c2,0,0.6-0.4,1.6-0.6
						c0.1,0.6,2.8,0.8,1.4,1c3.3,0.3,4.3,0.3,8.4,0c-0.4-0.2-0.9-0.3-0.7-0.5c0.8-0.1,1.7,0.2,1.6,0.5l-0.2,0
						c4.6-0.7,10.7,1.4,14.3,0.2l-0.2,0.1l3.8-0.6c1.7,0.1-1,0.4,0.3,0.7c4-0.9,6.4,0.1,9.7-0.3c0.6,0.4,1.5,0.6,2.5,0.8
						c1,0.1,2.1,0.2,3.3,0.3c1.2,0.1,2.3,0.2,3.4,0.4c1.1,0.2,2.1,0.5,2.8,0.9l-0.1-0.4c0.9-0.1,1,0.5,1.5,0.7
						c0-0.3-0.8-0.5-0.2-0.6c3.6,0.7,7.1,2.3,10,4.5c1.5,1.1,2.8,2.3,4,3.8c1.3,1.4,2.6,2.9,3.8,4.4c1.9,2.2,2.5-0.1,4.3,3.2
						l-1.2-0.3c2.3,1.9,4.3,4.1,6.4,6.3c2.1,2.2,4.4,4.3,7.1,5.8c-0.4-0.1-0.5,0.1-1-0.3c0.7,1.2,3.9,2.7,4.2,2.3
						c0.8,0.5,0,0.4,0.4,0.9c0.5,0.5,1.3,0.7,2.1,0.9c0.7,0.2,1.4,0.4,1.6,0.7c0.1,0.1-0.4,0-0.6,0c0.4,0.1,1.4,0.4,2.1,0.7
						c0.8,0.3,1.3,0.3,1,0c2.2,0.9,4.3,0.8,6,1.3c1.2-0.4,3.7,0.7,4.2-0.1c-0.2,0.9,3.7,1,5,0.7c-0.5,0.2,1.1,0.4,0.6,0.7
						c1.5,0.1,2.8,0.2,2.6-0.3c1.3,0.7,2.6,0.8,3.8,0.9c0.6,0,1.1,0.2,1.5,0.4c0.4,0.2,0.8,0.4,0.9,0.9c1.8,0.6,3.3,1.5,4.5,2.9
						c1.2,1.4,2,3.2,2.9,5.1c-0.4,0.1-0.9-1-1.3-1.9c-0.4-0.9-0.9-1.8-1.3-1.5c0.9,1.4,1.7,2.8,2.5,4.1c0.8,1.4,1.5,2.9,2.6,4.7
						c0.5,1-0.7-0.3-1-0.6c0.3,0.5,0.7,0.9,1,1.4c0.4,0.4,0.7,0.9,1.1,1.3c0.8,0.8,1.6,1.6,2.3,2.2c1.5,1.3,3.2,2.3,4.9,3
						c-0.1,0.1-0.4,0-0.8-0.2c0.6,0.4,1.4,0.9,1.5,0.5l-0.7-0.2c-0.7-1,3.1,0.2,3.3,0c-0.8,0.3,0,0.7,0.6,1.2
						c0.7,0.4,1.3,0.8,0.1,1.1c0.5,0.1,1.1,0.2,1.1-0.1c0.6,0.3,0.7,0.6,0,0.6c2.4,0.8,1.7,0,3.8,0.9c-0.1,0.2-0.5,0.1-0.8,0.2
						c1.2,0.1,2.4,0.1,4.1,0.9c-0.1,0.1,0,0.3-0.5,0.1c3,1.1,5.5,1,8.6,2.7c-1.3,0.4,1,0.7,0.8,1.5c0.6,0.2,1.2,0.4,1.8,0.6
						l-0.5-0.7c0.7,0.4,1.5,0.6,2.2,0.9c0.7,0.3,1.3,0.5,1.9,1c-0.4-0.1-0.8-0.2-1.2-0.3c0.9,0.4,1.8,1,2.7,1.5l-1.3-1.2
						c1.6,0.6,0.3-0.9,2.1,0.4c-0.4-0.2,1.4,0.9,1.9,1.8l0,0c0.8,0.3,1.7,0.5,2.6,1.4c0.1,0.4-0.7,0.5-0.6,0.8
						c1-0.1,3.3,2.1,4.5,2.2c-0.4-0.1-0.6,0.2-0.6,0.4l0.8,0c0.5,0.6,0.6,0.7,0.3,0.9c1.8,1.5,0-1.2,1.9,0.8c-0.2-0.1-0.2,0-0.6-0.2
						c2.1,1.8,4.4,3,6.2,4.9c0.1,1.1-1.8-1.3-1.6-0.2c2.9,2.2,6.4,4.2,9,6.6l-0.4-0.5c1.1-0.5,1.7,2.1,3.3,2.9
						c-0.4-0.2-0.8,0.1-0.7,0.1c1.7,1.7,3.9,3.1,6.9,5.3l-0.5-0.1c0.9,1.1,2.7,2.6,3.8,3.7c0.5,0.1,1.2,0.7,1,0.1
						c2.6,4.3,7.4,5.4,9.7,9.2c-0.4-0.3-1.1-0.6-0.8-0.4l2.9,2.2c0.1-0.5-0.2-0.5-0.5-1.3c0.5,0.1,1.4,0.6,2.1,1.2
						c-1.4-0.8-0.5,0.6-0.1,1.2c0-0.2,0.3-0.1,0.3-0.3c0.9,1.9,0.9-0.5,2.4,1.6l-0.3,0.1c0.8,0.5,1.7,0.9,2.4,1.6
						c0,0.7-0.9-0.5-1.3-0.2c1.1,0.9,2.8,1.1,3.5,2.4c-0.6-0.3-1.2-0.9-1.8-1.2c0.7,1.4,0.9,1.4,1.6,2.2l-0.1-0.1l1.7,1.8l-0.4-0.5
						c2.3,0.2,3,2.3,5.4,3.2c-2.4-0.9-0.6,0.1-1.2,0.4c0.4,0.5,1,1.3,0.6,1.3c1.2,0.4,1.2,1.6,2.9,2.1c-0.1,0.2,0.9,0.8,0.4,1
						c1.2,0.9,0-0.5,0.2-0.6c2.2,1,3.6,4.2,6.7,5.8c2.4,1.6,3.3,1.5,5.5,3c0.5,0.8-1,0-1,0c0.9,1.2,1.8,1.9,3,2.6
						c-0.3-0.1-0.2,0.2,0,0.7c0.9,0.7,1,0,1.9,1.1c-0.3,0-0.8,0-1.3-0.1c1.1,0.7,2.3,1.3,3.4,2.1c0,0.5-1-0.1-1.5-0.3
						c1.2,0.9,3.2,2.4,3.9,2.3l-0.6-0.8c0.4,0.3-0.1,0.5-0.5,0.3c-1.3-0.5-1.3-1.4-1.2-1.6l0.8,0.5c0-1.5-3-2.4-4.4-3.7l1.2-0.1
						l-1.9-0.8c-0.2-0.4-0.1-1,0.7-0.4c-0.8-1.2-1.1-0.6-1.7-1.7c-0.1-0.1,0-0.1,0.1-0.1l-1.2-0.7c0.3,0,0.2-0.6,0.8,0
						c-1.5-2-3.4-2.1-3.6-3.2l0.2,0.1c-2.7-2-0.6,0.2-3-0.9l-0.3-2.3l-0.7,0.2c-0.2-0.2-0.7-0.7-0.5-0.8c-1.2-0.5,0,0.3-0.8,0.1
						c-0.9-1.5-3.6-2.9-3.3-3.8c-0.8,0,1,1.3-0.6,0.4c0.3-1.1-1.7-1.2-2.5-2.6c0.7-0.1,1.6,1.1,0.8-0.3c-1.3,0.1-2.1-2.1-3.2-2.8
						c-0.5,0.5-2.3-1.6-4.1-2.9c0.3-0.1-2.8-3-4.1-4.5l0.1-0.1c-0.8,0.3-2.2-1.2-3.5-2.1c0.3-0.3,0.7-0.2,1.4,0.2l-1.1-0.9
						c-0.4,0-0.8-0.2-1.6-0.8l0.6-0.2c-1.4-1.2-3.3-2-4.9-3.9c-0.4,0.3,0.5,2.4-1.6,0.9c0.1-0.3,0.4-0.7,0.9-0.3
						c-0.2-0.1-0.7-0.3-1-0.7l1.1,0.3c-0.7-0.9-0.7-0.1-1.3-0.7c0.3-0.3-0.3-0.6,0-0.8c0.2,0.1,0.5,0.6,0.8,0.7
						c-0.7-0.7-1.5-1.7-1.6-2.2c-0.1,0.2-0.4,0.4-0.9,0c-1.4-1.2-0.2-0.8-0.9-1.7c-0.5-0.1-1.2-1.1-1.7-0.7
						c-0.4-0.4-0.3-0.6-0.4-0.9c-0.9-0.5-3.5-3-3.1-1.8l0.2,0.2c0,0-0.1-0.1-0.1-0.1c0,0,0,0,0,0l0,0c-2.8-1.7-4.8-4.7-7.4-6.6
						l0.1-0.1c-1.6-1.1-3.3-2.7-4.6-3.3c-0.4-0.4-0.8-1.1-0.4-1.2c-1.2-0.8-1.5-0.8-2.9-2.4c1.3,0.7-0.2-0.6,1.3,0.8
						c-1.3-1.4-1.5-1.9-3.4-2.8c0.9,0.1-0.7-1.4-1.5-1.9l0.8,1.1c-0.8-0.6-1.5-1.2-2.2-1.8l0.8-0.2c-2.5-3.1-6.4-3.3-8-6.1
						c-1.1-0.2,1.5,1.5,0.5,1.4c-1.4-1.1-2.4-3-2.8-3.3c-1.8-1.7-2.4-0.5-4.5-2.1c0.1,0.4,0.1,1.1-1.7,0.2c-1.5-1-1.3-2-0.3-1.6
						c0.4,0.2,0.5,0.4,0.5,0.4c0.5,0.2,1.2,0.6,0.8,0l-0.3,0.1c-0.3-0.3-1-0.8-1.5-1.2c-0.6-0.4-0.9-0.7-0.6-0.7
						c-1.3-0.5-0.7,0,0.1,0.7c-0.5-0.4-0.9-0.7-1.3-0.9c-0.4-0.2-0.8-0.5-1.3-0.7c-0.8-0.4-1.7-0.8-2.7-1.4c0.3,0.3,0.5,0.7,0.2,0.5
						c-3.1-1.7-1.6-0.2-3.8-1c-1.1-0.8,0.8-0.6-1.6-1.2c-1.3-0.8-0.1-0.7,0.5-0.7c-2.2-0.4-3.6-1.7-4.8-2.2l1.1,0.2
						c-0.7-0.1-1.2-0.3-1.7-0.5l0.4,0.7c-0.6-0.3-1.1-0.5-1-0.7c-0.7,0,0.2,0.9-1.2,0.8c-0.7-0.5-2.6-0.8-2.6-1.5
						c2.4,1.2,0-0.7,2.1,0.1c-0.4-0.1-0.9-0.3-1.5-0.6c-0.1-0.1,0.1-0.1,0.3-0.1c-2.1-1.5-1.4,0.2-3.8-0.9c0.5-0.2-0.3-0.9-0.7-1
						c1,0.5,0.2,0.8-0.8,0.6c-1.4-1-1.7-0.7-2.5-1.2l0.8,0.6c-0.5,0.1-1.2-0.3-2.2-0.9c0.1-0.3,1,0.4,0.7,0.1
						c-0.7-0.1-1.2-0.7-1.8-1.3c-0.3-0.3-0.5-0.7-0.8-1c-0.3-0.3-0.6-0.6-1-0.8c-0.4-0.7,0.4-0.5,0.1-1.1c-0.7-0.5-1-1-1.1-1.5
						c-0.1-0.2-0.2-0.5-0.3-0.8c-0.1-0.3-0.3-0.6-0.6-1c-0.2,0.7,0,0.8-1.1-0.3c0.6,1,1.2,1.9,1.9,2.8c-0.6-0.5-1.1-0.9-1.7-1.5
						c0.1,0.2,0.3,0.5,0.4,0.7c0.2,0.2,0.3,0.4,0.5,0.6c0.3,0.4,0.6,0.7,0.8,0.9c-0.5-0.3-0.7-0.4-0.7-0.4c-0.1,0-0.1,0.2-0.1,0.5
						c-0.1-0.4-0.2-0.7-0.4-1c-0.2-0.3-0.4-0.6-0.6-0.9c-0.5-0.6-0.9-1.3-1.1-2.1l1.1-0.4c-0.2-1.3-0.8-2.3-1.5-3.5
						c-0.7-1.2-1.5-2.5-2.4-4.1c0.2,0.4,0.4,0.8,0.5,1.1c-0.3-0.1-0.7-0.6-1-1.1c-0.4-0.5-0.9-1.2-1.4-1.6c0.4-0.2-0.1-0.8-0.4-1.4
						c-0.1,0.2-2.4-1.8-3.1-1.1c-0.4-0.4-0.9-0.8-1.3-1.2c-0.7-0.3-1.3-0.5-1.8-0.5c-0.5,0-0.9,0-1.4,0c-0.9,0.1-1.7,0.2-3-0.1
						c0.9-0.3-0.3-0.8,1.6-0.7c-0.9-0.2-1.7-0.4-1.8-0.1c-0.5-0.3-2.6,0.2-3.4-0.3c-0.4,0.1-0.6,0.5-1.6,0.4c-0.1-0.1,0-0.2,0-0.2
						c0,0.2-1.6,0.1-0.8,0.6c-1.3-0.7-3.2-0.9-5.1-1c-1.8-0.1-3.6-0.3-4.7-1.1c-0.9-0.1-1.9-0.3-2.9-0.5c-1-0.3-1.9-0.6-2.7-0.9
						c0.1-0.1,0.1-0.2,0.4,0c-1.9-1.3-1.8,0.5-4-1.2c-0.9-1.2,1.4,0.4,0.8-0.2c0.2-0.7-0.6-1-1.4-1.4c-0.9-0.4-1.9-1-2.4-1.8
						l0.4,0.2c-0.8-1.1-2.9-1.7-4.5-3.3c0,0,0.2,0,0.1-0.1c-1.6-0.6-3.9-2.6-5.5-4.1c0.8,0.2,0.9,0.6,1-0.1
						c-0.7-0.7-0.4,0.8-1.9-0.6c-0.2-0.7-1-1.9-0.8-2.4l1.3,1.4c-0.1-1.2-1.7-1.8-2.2-2.6l0.3-0.1c-2-2.1-2.6-1.6-4.8-3.9l0.1,0.4
						c-1.8-0.7-0.7-1.4-2.3-2.1l0.2-0.9c-0.2-0.2-0.6-0.4-1-0.6c-0.4-0.2-0.9-0.5-1.4-0.8c-1-0.6-2.1-1.2-3-1.7
						c0.6,0.1,1.5,0.4,2.4,0.9c0.9,0.5,1.7,1,2.4,1.4c-0.4-0.4-1.2-1-2-1.6c-0.8-0.5-1.5-0.9-1.9-0.9c0.4,0.2,1,0.4,1.3,0.8
						c-0.8-0.2-1.6-0.5-2.4-0.9c-0.9-0.4-1.8-0.8-2.8-1.4c0.5-0.6-0.7-1.4-2.4-2.1c-1.6-0.8-3.5-1.4-4.2-2.2
						c-4.1-0.6-7.9-2-12.6-2.3c1.6,1.3-1.4-0.1-1.2,1.2c-1.1,0-1.5,0-1.6-0.1c-1.1-0.3-2.2-0.6-3.2-0.8c-0.8-0.4,1-0.2,0.9-0.5
						c-2.4-0.1-1-0.6-2.6-0.9c0.3,0.4-0.8,0.6-2.2,0.5l1.9,0.6c-3.3,0.6-2.9-1-6.2-0.3l1-0.4c-1.7,0.3-6.3,0.1-7.9,1.2
						c-0.3-0.1-0.7-0.5,0-0.6c-4,0-8.9,1.2-12,0.5l0.3-0.3c-0.7,0.1-1.3,0.5-2.2,0.2c0.1-0.1,0.3-0.3,0-0.3c-0.4,0.1-2,0.4-2.9,0.2
						l0.9-0.3c-0.9-0.2-1.8-0.2-2.5-0.3c-0.8,0-1.5,0-2.2,0c-1.4,0.1-2.7,0.2-4.3-0.1c0.1-0.4-0.5-0.9-1.4-1.3
						c-0.8-0.4-1.8-0.9-2.4-1.2l0.1-0.1c-0.9-0.4-1.9-0.7-2.7-1.1c-0.4-0.2-0.8-0.3-1.3-0.5c-0.4-0.2-0.8-0.4-1.2-0.5
						c-0.8-0.3-1.6-0.8-2.5-1.2c-0.9-0.5-1.7-0.9-2.6-1.5c-1.6-2.3-6.9-5.6-10-8.5c0.4,0.5-0.5,0.5-1.1,0.1
						c-0.7-0.7-2.5-1.2-1.9-1.7l0.3,0.2c-0.1-1.1-1.9-2.2-3.1-3.1l-0.9,0.7c-2.4-3.7-9-6.2-9.9-8.7c-1-0.4-1.9-1.2-2.9-1.6l0.4-0.4
						c-2.1-1.8-3.1-2.7-5.9-4.8l0.8,0.1c-1.5-1.2-2.9-0.2-4.4-1.3l0.1-1c-2.7-2.1-4.9-4.8-8-6.3c0.1-0.1,0.3-0.2,0.8,0.1
						c-1.2-1-4.5-4.3-4.7-3c0.4-0.6-2.7-2.2-4.3-3.1l0.6-0.3c-1.7-0.4-1.8-0.3-3.6-1.5c-0.4-0.4-0.1-0.6,0.4-0.1
						c-1.2-1.3-1.4-0.4-2.8-1.9l0.8,0.2c-1.3-1.1-1.4-0.9-2.4-1.2c-1-0.5-2.5-2.2-2.4-2.7c-0.4,0.1-1.4-0.2-2.1-0.9
						c0-0.2,0.4-0.1,0.6,0c-2.1-2.1-3.8-2.2-5-3.9c0.1-0.2,0-0.3-0.1-0.5c1.8,1.5,3.3,2.6,3.1,2.6c0.3-0.4-1.1-1.6,0.5-1.3
						c-1.4-0.6-4-1.6-5.3-2.9c0-0.1-0.1-0.2-0.1-0.3l0.2,0.1c-0.3-0.3-0.6-0.5-1-0.7c-0.4-0.4-0.7-0.7-1.1-1.1
						c0.1-0.5-1.5-1.5-2.3-2.1c-0.3,0.5-1.2-0.3-0.6,0.7c-0.1-0.1,0.2,0.1,0.7,0.4c0.1,0.1,0.3,0.2,0.3,0.2c0,0-0.1,0-0.1,0
						c0.5,0.4,1.1,0.9,1.8,1.4c-0.8-0.2-1.5-0.5-2.1-1.4c-0.6,0-1.2-0.1-1.6-0.1c-0.5-1.4-2.2-3.3-2.2-3.9c-2.4-1.5-5.4-4-7.5-4.3
						c-0.7-0.4-0.5-0.8-0.7-1.1c0.4,0.2,0.9,0.6,1.2,0.6c-1.4-0.8-3.8-2.9-4.6-2.6c-1.4-1.5,1.3,0.2-1-1.5l0.4,0.1
						c-3.6-4.3-8.2-4.1-12.2-9.1c0.3,0.3,0.4,0.5,0.4,0.6c-2.6-2.4-5.5-4.5-8.4-6.6c-2.9-2.1-5.8-4.2-8.2-6.7
						c-1.4-1.4-1.9-1.1-3.1-1.5l0-0.7l-2.1-0.7c-2.6-1.3-3.1-4.2-6.7-5.6l0.1,0.6c-1-0.8-3.5-2.3-3.1-2.5c-0.2,0-0.6,0.1-0.9-0.4
						l0.2-0.3c-1-0.5-2-1-3-1.4c-2-1.6,1-0.8-2-2.9c-1.2-0.7-3.7-1.4-3.4-1c0.4,0.3,1.1,1,0.9,1.2L0.3,198c-0.7,0.6-2,0.9,0.1,3.2
						l2.1,0.7l0.3,0.8l-1.5-1c0.6,0.9,1.3,1,2.1,1.2c0,0.3,0.2,0.6,0.4,0.9c0.7,0.2,1.5,0.3,2.2,0.5c0,0.4-1.2,0-0.2,1
						c1,0.2-0.3-1.2,1.2-0.5c0.6,0.9,0.1,1,1.3,1.5c0,0.3-0.3,0.3-0.7,0.1c1,0.4,2.4,1.5,3.1,1.5c0.6,1,3,2,2.4,2.6
						c0.4,0,1.9,0.6,2.7,1.1c-2.1-0.2,2.9,2.2,1.8,2.9c1.6,0,4.1,2.5,6.3,3.5c-0.1,0-0.4-0.1-0.6-0.2c1,0.9,1.1,1.3,1.7,2
						c0.6-0.5,2.4,0.6,3.5,0.9c0.8,1.6-1.3,0.1-1.4,1c0.3-0.6,2.6,1.2,2.5,0.4c0.7,1.1,0.7,0.8,0.8,1.7c0.8-0.6,1,0.6,2.2,0.7
						c1.1,1.5-0.2,1,1.5,2C34.9,227.2,33.3,226.4,33.3,226.4z M71.1,254C71.1,254,71.1,254,71.1,254c-0.3-0.2-0.6-0.4-0.8-0.6
						C70.5,253.6,70.7,253.7,71.1,254z M74.2,256.5c-0.4-0.3-0.8-0.7-1.3-1.1c0-0.2,0.3-0.3,0.6,0C73.2,255.3,73.9,256,74.2,256.5z
						 M70.1,248.2c0.5,0.3,0.6,0.5,0.6,0.7c-0.2-0.2-0.5-0.4-0.9-0.6c0,0-0.1,0-0.1,0C69.9,248.3,70,248.2,70.1,248.2z"/>
					<path class="st1" d="M68.8,248.1c-0.1,0-0.1-0.1-0.2-0.1c0.1,0.1,0.1,0.2,0.2,0.3c0.1,0,0.2,0,0.3,0
						C69,248.3,68.9,248.2,68.8,248.1z"/>
					<path class="st1" d="M366.7,418.7L366.7,418.7c0,0,0,0.1,0,0.1C366.7,418.7,366.7,418.7,366.7,418.7z"/>
					<polygon class="st1" points="116.2,291.1 116.3,290.9 115.9,290.8 					"/>
					<path class="st1" d="M381.7,434.4c0,0.1,0,0.2,0.1,0.3C381.9,434.7,381.8,434.6,381.7,434.4z"/>
					<path class="st1" d="M388.7,440.7l0.9,1C389.2,441.3,388.9,441,388.7,440.7z"/>
					<path class="st1" d="M393.9,445.7c0.1,0,0.2-0.1,0.3-0.1c0,0,0,0,0,0L393.9,445.7z"/>
					<path class="st1" d="M301.6,380c-0.1-0.1-0.2-0.1-0.3-0.1C300.7,379.6,301.2,379.8,301.6,380z"/>
					<path class="st1" d="M333,393.4c-0.4-0.1-0.7-0.2-1.1-0.4C332.4,393.4,332.8,393.6,333,393.4z"/>
					<path class="st1" d="M275.5,357.6C275.5,357.6,275.5,357.6,275.5,357.6c-0.1,0-0.1,0-0.2,0L275.5,357.6z"/>
					<path class="st1" d="M330.6,392.2c0.4,0.4,0.9,0.7,1.3,0.9C331.6,392.7,331.1,392.3,330.6,392.2z"/>
					<path class="st1" d="M417.2,466.5l0.2,0.2c0,0,0.1,0,0.1,0L417.2,466.5z"/>
					<path class="st1" d="M417.5,466.7l0.3,0.2C417.7,466.8,417.6,466.7,417.5,466.7z"/>
					<path class="st1" d="M418.6,467.3l-0.7-0.4C418.1,467.1,418.3,467.3,418.6,467.3z"/>
					<path class="st1" d="M410.2,460l-0.2,0.1C410.1,460.1,410.1,460.1,410.2,460z"/>
					<path class="st1" d="M408,458.1c0.5,0.5,1,1.5,1.8,2l0.2-0.1C409.5,460,408.7,458.3,408,458.1z"/>
					<path class="st1" d="M400.6,448.3l1.7,1.7c-0.2-0.4-0.4-1,0.5-0.3C400.9,447.1,402.9,450.4,400.6,448.3z"/>
					<path class="st1" d="M395.1,443c1,0.8,0.2-0.2,0.3-0.3C394.7,442.4,394.5,442.3,395.1,443z"/>
					<path class="st1" d="M354.2,407.2l0.4-0.3C353.8,406.2,354.5,407,354.2,407.2z"/>
					<polygon class="st1" points="344.5,402.5 345.1,403.4 345.8,403.3 					"/>
					<polygon class="st1" points="341.9,395.9 342.3,396.1 340.8,395.2 					"/>
					<path class="st1" d="M265.6,351.7l0.2,0.7C266.5,352.3,266.7,351.7,265.6,351.7z"/>
					<path class="st1" d="M235.2,330.1c-0.1-0.5-0.7-1.5-1.4-1.8C234.3,329,234.8,329.8,235.2,330.1z"/>
					<polygon class="st1" points="127.6,293.5 128.3,293.8 127,293 					"/>
				</g>
			</g>
		</g>
	</g>
</g>
<g>
	<g>
		<path class="st2" d="M1245.3,545c-9,5.4-16.2,13.6-23.5,21.1c-6.5,6.7-9.4,17-6.6,25.6c3.5,10.6,15.3,17.3,26.4,14.9
			c11.1-2.4,20.2-13.7,20.3-25.1c0-4.6-1.3-9.2-4.4-12.4c-3.6-3.8-9-5.3-14.2-6.3c-5.5-1-11.6-0.6-16.8-2.2
			c-6.1-1.8-12-5.1-17.8-7.6"/>
		<path class="st2" d="M1218,578.7c0.6,3.9,1.6,7.6,3,11.2"/>
		<path class="st2" d="M1225.2,575.3c-1.1,0.2-1.9,1.1-2.3,2.2c-0.4,1-0.3,2.1-0.1,3.2c0.2,1.3,0.6,2.5,1.4,3.5
			c0.8,1,1.9,1.8,3.2,1.9c1.3,0.1,2.7-0.5,3.4-1.6c0.5-0.9,0.6-1.9,0.5-2.9c-0.3-1.7-1.2-3.3-2.6-4.2c-1.4-0.9-3.4-1.1-5-0.3"/>
		<path class="st2" d="M1229.7,572.5c2.5,3,4.6,6.3,6,9.9"/>
		<path class="st2" d="M1230.3,591.9c-0.5,0.1-0.8,0.6-0.9,1.1c-0.1,0.5,0.1,0.9,0.2,1.4c0.3,1,0.7,2,1.2,2.9s1.4,1.6,2.4,1.9
			c1,0.2,2.3-0.1,2.9-1c0.8-1.1,0.5-2.5-0.1-3.6c-0.9-1.3-2.3-2.2-3.9-2.4s-3.3,0.3-4.6,1.4"/>
		<path class="st2" d="M1240.9,587c-1.3-0.4-2.8,0.3-3.5,1.5c-0.7,1.2-0.7,2.7,0,3.7c0.8,1.2,2.3,1.8,3.8,2.2c1,0.2,2.2,0.3,3-0.4
			c0.8-0.8,0.5-2.2,0.1-3.2c-0.4-1-0.9-2-1.7-2.6c-0.8-0.7-2.1-0.9-3.1-0.4"/>
		<path class="st2" d="M1250.5,581.8c-2.1,0.1-4.2,1.7-4.7,3.7c-0.5,2,0.6,4.2,2.5,5c0.9,0.4,1.9,0.4,2.8,0c1.3-0.7,1.8-2.4,1.5-3.8
			c-0.3-1.4-1.3-2.5-2.2-3.5"/>
		<path class="st2" d="M1252.9,580.5c2.3,2.3,4,5.1,4.9,8.2"/>
		<path class="st2" d="M1234.9,570.6c2.7,2.5,4.8,5.8,6.1,9.5"/>
		<path class="st2" d="M1239.4,568.9c2.7,2.5,4.8,5.8,6.1,9.5"/>
		<path class="st2" d="M1251.9,567.9c-2.1,0.1-4.2,1.7-4.7,3.7c-0.5,2,0.6,4.2,2.5,5c0.9,0.4,1.9,0.4,2.8,0c1.3-0.7,1.8-2.4,1.5-3.8
			s-1.3-2.5-2.2-3.5"/>
		<path class="st2" d="M1225.1,591.7c0.6,3.9,1.6,7.6,3,11.2"/>
	</g>
</g>
<g>
	<line class="st3" x1="1225.3" y1="675.8" x2="1196.2" y2="683.9"/>
	<line class="st3" x1="1196.2" y1="683.9" x2="1199.5" y2="713"/>
</g>
<g>
	<line class="st3" x1="1227.7" y1="730" x2="1215.6" y2="703.4"/>
	<line class="st3" x1="1215.6" y1="703.4" x2="1235.1" y2="675.2"/>
</g>
<g>
	<g>
		<line class="st0" x1="583" y1="279.6" x2="593.5" y2="289.8"/>
		<line class="st0" x1="583.1" y1="279.8" x2="591.9" y2="267"/>
	</g>
	<g>
		<line class="st0" x1="610" y1="278.4" x2="600.4" y2="290"/>
		<line class="st0" x1="609.9" y1="278.6" x2="600.1" y2="267.1"/>
	</g>
</g>
<path class="st4" d="M603.7,314.9c3.9-2.3,6.2-6.2,5.6-10.2c-0.9-5.7-7.4-9.3-14.5-8.2c-7.1,1.1-12.2,6.6-11.3,12.2
	c0.8,5.4,6.8,9,13.5,8.4c-6.8,5.9-13.6,21.9-14.1,37.5c-0.7,19.7,9.3,23.2,17.2,23.2c7.9,0,19-3.5,19.6-23.3
	C620.3,336.1,611.3,317.2,603.7,314.9z"/>
<line class="st0" x1="592" y1="332.5" x2="554.5" y2="346.5"/>
<line class="st0" x1="564.5" y1="352.5" x2="592.1" y2="341.1"/>
<g>
	<g>
		<line class="st0" x1="128" y1="121" x2="129" y2="143.5"/>
		<g>
			<path class="st4" d="M98.2,152.7c4.2-1.7,7-5.2,7-9.2c0-5.7-5.9-10.4-13.1-10.4s-13.1,4.6-13.1,10.4c0,5.5,5.3,9.9,12.1,10.3
				c-7.6,4.8-16.8,19.5-19.7,34.9c-3.7,19.4,5.6,24.4,13.5,25.6c7.9,1.2,19.3-0.6,23-20C111.3,176.2,105.4,156.2,98.2,152.7z"/>
			<line class="st0" x1="79.5" y1="213.2" x2="67" y2="248"/>
			<line class="st0" x1="94" y1="214" x2="97" y2="268"/>
			<line class="st0" x1="78.6" y1="168.5" x2="57" y2="144.1"/>
			<line class="st0" x1="57" y1="145.1" x2="60" y2="122"/>
			<line class="st0" x1="129" y1="143.5" x2="107.4" y2="169.5"/>
		</g>
	</g>
	<polygon class="st2" points="104.9,97.1 98.4,96.9 94.6,102.1 92.8,95.9 86.6,93.8 92,90.2 92,83.7 97.2,87.7 103.4,85.7 
		101.2,91.8 	"/>
	<polygon class="st2" points="128.9,105.1 122.4,104.9 118.6,110.1 116.8,103.9 110.6,101.8 116,98.2 116,91.7 121.2,95.7 
		127.4,93.7 125.2,99.8 	"/>
	<polygon class="st2" points="76.9,105.1 70.4,104.9 66.6,110.1 64.8,103.9 58.6,101.8 64,98.2 64,91.7 69.2,95.7 75.4,93.7 
		73.2,99.8 	"/>
</g>
<g>
	<g>
		<path class="st5" d="M733,311"/>
	</g>
</g>
<g>
	<g>
		<line class="st6" x1="155" y1="209" x2="155" y2="263.5"/>
		<line class="st6" x1="168.5" y1="263.5" x2="155.2" y2="263.5"/>
	</g>
	<line class="st6" x1="175.5" y1="288.5" x2="175.5" y2="315.5"/>
	<line class="st6" x1="199.5" y1="288" x2="198.5" y2="318.5"/>
	<g>
		<g>
			<path class="st2" d="M207.7,156.5c-9.8,1.6-18.8,6.3-27.7,10.4c-7.9,3.6-13.8,11.6-14,20c-0.2,10.4,8.3,20.2,19.1,21.9
				s22.5-5.1,26.1-15c1.5-4,1.7-8.5,0-12.3c-2-4.5-6.4-7.7-10.8-10.3c-4.6-2.7-10.2-4.5-14.4-7.6c-4.9-3.6-9.1-8.5-13.6-12.7"/>
			<path class="st2" d="M172.5,176.6c-0.7,3.6-0.9,7.2-0.8,10.8"/>
			<path class="st2" d="M180,176c-1-0.2-2.1,0.3-2.8,1.1c-0.7,0.8-1,1.7-1.1,2.7c-0.2,1.2-0.2,2.4,0.1,3.5s1.2,2.2,2.3,2.7
				c1.1,0.5,2.6,0.5,3.6-0.2c0.8-0.6,1.2-1.5,1.3-2.4c0.3-1.6,0-3.2-1-4.5c-1-1.3-2.7-2.1-4.4-1.9"/>
			<path class="st2" d="M185,175.1c1.3,3.4,2.1,7.1,2.3,10.7"/>
			<path class="st2" d="M179.4,192.2c-0.5-0.1-0.9,0.3-1.1,0.7c-0.2,0.4-0.2,0.9-0.2,1.3c0,1,0,2,0.2,2.9s0.7,1.9,1.6,2.4
				c0.9,0.6,2.1,0.7,2.9,0.2c1-0.6,1.3-2,1-3.2c-0.4-1.4-1.4-2.7-2.8-3.4s-3.1-0.8-4.6-0.4"/>
			<path class="st2" d="M190.5,191.5c-1-0.7-2.6-0.7-3.6,0.1s-1.4,2.1-1.1,3.3c0.3,1.3,1.5,2.4,2.7,3.2c0.8,0.6,1.9,1.1,2.8,0.6
				c1-0.5,1.2-1.7,1.1-2.7c-0.1-1-0.2-2-0.7-2.9c-0.5-0.9-1.6-1.5-2.6-1.4"/>
			<path class="st2" d="M200.7,190.2c-1.9-0.7-4.3,0.1-5.4,1.7c-1.1,1.6-0.8,3.9,0.7,5.2c0.7,0.6,1.6,1,2.5,0.9
				c1.4-0.2,2.4-1.5,2.5-2.8s-0.3-2.6-0.8-3.8"/>
			<path class="st2" d="M203.3,190c1.4,2.8,2,5.8,1.8,8.8"/>
			<path class="st2" d="M190.3,175.2c1.6,3.1,2.5,6.7,2.5,10.3"/>
			<path class="st2" d="M194.8,175.2c1.6,3.1,2.5,6.7,2.5,10.3"/>
			<path class="st2" d="M206.4,178.6c-1.9-0.7-4.3,0.1-5.4,1.7c-1.1,1.6-0.8,3.9,0.7,5.2c0.7,0.6,1.6,1,2.5,0.9
				c1.4-0.2,2.4-1.5,2.5-2.8s-0.3-2.6-0.8-3.8"/>
			<path class="st2" d="M174.8,190.3c-0.7,3.6-0.9,7.2-0.8,10.8"/>
		</g>
		<rect x="177.5" y="220.5" class="st6" width="7" height="7"/>
		<rect x="175.5" y="216.5" class="st6" width="24" height="24"/>
		<rect x="168.5" y="249.5" class="st7" width="39" height="39"/>
		<rect x="188.5" y="220.5" class="st6" width="7" height="7"/>
		<line class="st6" x1="218.5" y1="208.5" x2="155" y2="209.5"/>
		<g>
			<line class="st6" x1="220" y1="207" x2="220" y2="262.5"/>
			<line class="st6" x1="208" y1="262.5" x2="219.8" y2="262.5"/>
		</g>
	</g>
</g>
<g>
	<path class="st2" d="M716.7,279.5c-9.8,1.6-18.8,6.3-27.7,10.4c-7.9,3.6-13.8,11.6-14,20c-0.2,10.4,8.3,20.2,19.1,21.9
		c10.8,1.7,22.5-5.1,26.1-15c1.5-4,1.7-8.5,0-12.3c-2-4.5-6.4-7.7-10.8-10.3c-4.6-2.7-10.2-4.5-14.4-7.6c-4.9-3.6-9.1-8.5-13.6-12.7
		"/>
	<path class="st2" d="M681.5,299.6c-0.7,3.6-0.9,7.2-0.8,10.8"/>
	<path class="st2" d="M689,299c-1-0.2-2.1,0.3-2.8,1.1c-0.7,0.8-1,1.7-1.1,2.7c-0.2,1.2-0.2,2.4,0.1,3.5c0.4,1.1,1.2,2.2,2.3,2.7
		s2.6,0.5,3.6-0.2c0.8-0.6,1.2-1.5,1.3-2.4c0.3-1.6,0-3.2-1-4.5s-2.7-2.1-4.4-1.9"/>
	<path class="st2" d="M694,298.1c1.3,3.4,2.1,7.1,2.3,10.7"/>
	<path class="st2" d="M688.4,315.2c-0.5-0.1-0.9,0.3-1.1,0.7c-0.2,0.4-0.2,0.9-0.2,1.3c0,1,0,2,0.2,2.9c0.2,0.9,0.7,1.9,1.6,2.4
		c0.9,0.6,2.1,0.7,2.9,0.2c1-0.6,1.3-2,1-3.2c-0.4-1.4-1.4-2.7-2.8-3.4s-3.1-0.8-4.6-0.4"/>
	<path class="st2" d="M699.5,314.5c-1-0.7-2.6-0.7-3.6,0.1c-1,0.8-1.4,2.1-1.1,3.3c0.3,1.3,1.5,2.4,2.7,3.2c0.8,0.6,1.9,1.1,2.8,0.6
		c1-0.5,1.2-1.7,1.1-2.7c-0.1-1-0.2-2-0.7-2.9c-0.5-0.9-1.6-1.5-2.6-1.4"/>
	<path class="st2" d="M709.7,313.2c-1.9-0.7-4.3,0.1-5.4,1.7c-1.1,1.6-0.8,3.9,0.7,5.2c0.7,0.6,1.6,1,2.5,0.9
		c1.4-0.2,2.4-1.5,2.5-2.8c0.1-1.3-0.3-2.6-0.8-3.8"/>
	<path class="st2" d="M712.3,313c1.4,2.8,2,5.8,1.8,8.8"/>
	<path class="st2" d="M699.3,298.2c1.6,3.1,2.5,6.7,2.5,10.3"/>
	<path class="st2" d="M703.8,298.2c1.6,3.1,2.5,6.7,2.5,10.3"/>
	<path class="st2" d="M715.4,301.6c-1.9-0.7-4.3,0.1-5.4,1.7c-1.1,1.6-0.8,3.9,0.7,5.2c0.7,0.6,1.6,1,2.5,0.9
		c1.4-0.2,2.4-1.5,2.5-2.8c0.1-1.3-0.3-2.6-0.8-3.8"/>
	<path class="st2" d="M683.8,313.3c-0.7,3.6-0.9,7.2-0.8,10.8"/>
</g>
<g>
	<g>
		<g>
			<path class="st7" d="M696.2,426.5c5.9,0.9,7,8.2,7.1,13.1c0,1.9,3,1.9,3,0c-0.1-6.2-2-14.8-9.3-15.9
				C695.1,423.3,694.3,426.2,696.2,426.5L696.2,426.5z"/>
		</g>
	</g>
	<g>
		<g>
			<path class="st7" d="M717.3,423.5c0.6-3.3-2.4-9-6.2-6.2c-2.6,1.9-3.9,6-5.1,8.9c-1.8,4.4-3.1,9-4,13.7c-0.4,1.9,2.5,2.7,2.9,0.8
				c0.7-3.7,1.7-7.3,2.9-10.8c0.7-2,1.5-4,2.5-5.9c0.7-1.3,5.4-7.5,4.2-1.2C714,424.6,716.9,425.4,717.3,423.5L717.3,423.5z"/>
		</g>
	</g>
	<g>
		<g>
			<path class="st7" d="M705.5,437.1c0.7-4.9,4.2-24.8-5.2-24.3c-1.9,0.1-1.9,3.1,0,3c5.5-0.3,2.8,17.6,2.4,20.5
				C702.3,438.2,705.2,439,705.5,437.1L705.5,437.1z"/>
		</g>
	</g>
</g>
<g>
	<g>
		<g>
			<path class="st7" d="M482.2,577.5c5.9,0.9,7,8.2,7.1,13.1c0,1.9,3,1.9,3,0c-0.1-6.2-2-14.8-9.3-15.9
				C481.1,574.3,480.3,577.2,482.2,577.5L482.2,577.5z"/>
		</g>
	</g>
	<g>
		<g>
			<path class="st7" d="M503.3,574.5c0.6-3.3-2.4-9-6.2-6.2c-2.6,1.9-3.9,6-5.1,8.9c-1.8,4.4-3.1,9-4,13.7c-0.4,1.9,2.5,2.7,2.9,0.8
				c0.7-3.7,1.7-7.3,2.9-10.8c0.7-2,1.5-4,2.5-5.9c0.7-1.3,5.4-7.5,4.2-1.2C500,575.6,502.9,576.4,503.3,574.5L503.3,574.5z"/>
		</g>
	</g>
	<g>
		<g>
			<path class="st7" d="M491.5,588.1c0.7-4.9,4.2-24.8-5.2-24.3c-1.9,0.1-1.9,3.1,0,3c5.5-0.3,2.8,17.6,2.4,20.5
				C488.3,589.2,491.2,590,491.5,588.1L491.5,588.1z"/>
		</g>
	</g>
</g>
<g>
	<g>
		<g>
			<path class="st7" d="M617.2,519.5c5.9,0.9,7,8.2,7.1,13.1c0,1.9,3,1.9,3,0c-0.1-6.2-2-14.8-9.3-15.9
				C616.1,516.3,615.3,519.2,617.2,519.5L617.2,519.5z"/>
		</g>
	</g>
	<g>
		<g>
			<path class="st7" d="M638.3,516.5c0.6-3.3-2.4-9-6.2-6.2c-2.6,1.9-3.9,6-5.1,8.9c-1.8,4.4-3.1,9-4,13.7c-0.4,1.9,2.5,2.7,2.9,0.8
				c0.7-3.7,1.7-7.3,2.9-10.8c0.7-2,1.5-4,2.5-5.9c0.7-1.3,5.4-7.5,4.2-1.2C635,517.6,637.9,518.4,638.3,516.5L638.3,516.5z"/>
		</g>
	</g>
	<g>
		<g>
			<path class="st7" d="M626.5,530.1c0.7-4.9,4.2-24.8-5.2-24.3c-1.9,0.1-1.9,3.1,0,3c5.5-0.3,2.8,17.6,2.4,20.5
				C623.3,531.2,626.2,532,626.5,530.1L626.5,530.1z"/>
		</g>
	</g>
</g>
<g>
	<g>
		<g>
			<path class="st7" d="M274.2,456.5c5.9,0.9,7,8.2,7.1,13.1c0,1.9,3,1.9,3,0c-0.1-6.2-2-14.8-9.3-15.9
				C273.1,453.3,272.3,456.2,274.2,456.5L274.2,456.5z"/>
		</g>
	</g>
	<g>
		<g>
			<path class="st7" d="M295.3,453.5c0.6-3.3-2.4-9-6.2-6.2c-2.6,1.9-3.9,6-5.1,8.9c-1.8,4.4-3.1,9-4,13.7c-0.4,1.9,2.5,2.7,2.9,0.8
				c0.7-3.7,1.7-7.3,2.9-10.8c0.7-2,1.5-4,2.5-5.9c0.7-1.3,5.4-7.5,4.2-1.2C292,454.6,294.9,455.4,295.3,453.5L295.3,453.5z"/>
		</g>
	</g>
	<g>
		<g>
			<path class="st7" d="M283.5,467.1c0.7-4.9,4.2-24.8-5.2-24.3c-1.9,0.1-1.9,3.1,0,3c5.5-0.3,2.8,17.6,2.4,20.5
				C280.3,468.2,283.2,469,283.5,467.1L283.5,467.1z"/>
		</g>
	</g>
</g>
<g>
	<g>
		<g>
			<path class="st7" d="M246.2,698.5c5.9,0.9,7,8.2,7.1,13.1c0,1.9,3,1.9,3,0c-0.1-6.2-2-14.8-9.3-15.9
				C245.1,695.3,244.3,698.2,246.2,698.5L246.2,698.5z"/>
		</g>
	</g>
	<g>
		<g>
			<path class="st7" d="M267.3,695.5c0.6-3.3-2.4-9-6.2-6.2c-2.6,1.9-3.9,6-5.1,8.9c-1.8,4.4-3.1,9-4,13.7c-0.4,1.9,2.5,2.7,2.9,0.8
				c0.7-3.7,1.7-7.3,2.9-10.8c0.7-2,1.5-4,2.5-5.9c0.7-1.3,5.4-7.5,4.2-1.2C264,696.6,266.9,697.4,267.3,695.5L267.3,695.5z"/>
		</g>
	</g>
	<g>
		<g>
			<path class="st7" d="M255.5,709.1c0.7-4.9,4.2-24.8-5.2-24.3c-1.9,0.1-1.9,3.1,0,3c5.5-0.3,2.8,17.6,2.4,20.5
				C252.3,710.2,255.2,711,255.5,709.1L255.5,709.1z"/>
		</g>
	</g>
</g>
<g>
	<g>
		<g>
			<path class="st7" d="M1037.2,713.5c5.9,0.9,7,8.2,7.1,13.1c0,1.9,3,1.9,3,0c-0.1-6.2-2-14.8-9.3-15.9
				C1036.1,710.3,1035.3,713.2,1037.2,713.5L1037.2,713.5z"/>
		</g>
	</g>
	<g>
		<g>
			<path class="st7" d="M1058.3,710.5c0.6-3.3-2.4-9-6.2-6.2c-2.6,1.9-3.9,6-5.1,8.9c-1.8,4.4-3.1,9-4,13.7
				c-0.4,1.9,2.5,2.7,2.9,0.8c0.7-3.7,1.7-7.3,2.9-10.8c0.7-2,1.5-4,2.5-5.9c0.7-1.3,5.4-7.5,4.2-1.2
				C1055,711.6,1057.9,712.4,1058.3,710.5L1058.3,710.5z"/>
		</g>
	</g>
	<g>
		<g>
			<path class="st7" d="M1046.5,724.1c0.7-4.9,4.2-24.8-5.2-24.3c-1.9,0.1-1.9,3.1,0,3c5.5-0.3,2.8,17.6,2.4,20.5
				C1043.3,725.2,1046.2,726,1046.5,724.1L1046.5,724.1z"/>
		</g>
	</g>
</g>
<g>
	<g>
		<g>
			<path class="st7" d="M830.2,506.5c5.9,0.9,7,8.2,7.1,13.1c0,1.9,3,1.9,3,0c-0.1-6.2-2-14.8-9.3-15.9
				C829.1,503.3,828.3,506.2,830.2,506.5L830.2,506.5z"/>
		</g>
	</g>
	<g>
		<g>
			<path class="st7" d="M851.3,503.5c0.6-3.3-2.4-9-6.2-6.2c-2.6,1.9-3.9,6-5.1,8.9c-1.8,4.4-3.1,9-4,13.7c-0.4,1.9,2.5,2.7,2.9,0.8
				c0.7-3.7,1.7-7.3,2.9-10.8c0.7-2,1.5-4,2.5-5.9c0.7-1.3,5.4-7.5,4.2-1.2C848,504.6,850.9,505.4,851.3,503.5L851.3,503.5z"/>
		</g>
	</g>
	<g>
		<g>
			<path class="st7" d="M839.5,517.1c0.7-4.9,4.2-24.8-5.2-24.3c-1.9,0.1-1.9,3.1,0,3c5.5-0.3,2.8,17.6,2.4,20.5
				C836.3,518.2,839.2,519,839.5,517.1L839.5,517.1z"/>
		</g>
	</g>
</g>
<g>
	<g>
		<g>
			<path class="st7" d="M601.2,711.5c5.9,0.9,7,8.2,7.1,13.1c0,1.9,3,1.9,3,0c-0.1-6.2-2-14.8-9.3-15.9
				C600.1,708.3,599.3,711.2,601.2,711.5L601.2,711.5z"/>
		</g>
	</g>
	<g>
		<g>
			<path class="st7" d="M622.3,708.5c0.6-3.3-2.4-9-6.2-6.2c-2.6,1.9-3.9,6-5.1,8.9c-1.8,4.4-3.1,9-4,13.7c-0.4,1.9,2.5,2.7,2.9,0.8
				c0.7-3.7,1.7-7.3,2.9-10.8c0.7-2,1.5-4,2.5-5.9c0.7-1.3,5.4-7.5,4.2-1.2C619,709.6,621.9,710.4,622.3,708.5L622.3,708.5z"/>
		</g>
	</g>
	<g>
		<g>
			<path class="st7" d="M610.5,722.1c0.7-4.9,4.2-24.8-5.2-24.3c-1.9,0.1-1.9,3.1,0,3c5.5-0.3,2.8,17.6,2.4,20.5
				C607.3,723.2,610.2,724,610.5,722.1L610.5,722.1z"/>
		</g>
	</g>
</g>
<g>
	<g>
		<g>
			<path class="st7" d="M17.2,726.5c5.9,0.9,7,8.2,7.1,13.1c0,1.9,3,1.9,3,0c-0.1-6.2-2-14.8-9.3-15.9
				C16.1,723.3,15.3,726.2,17.2,726.5L17.2,726.5z"/>
		</g>
	</g>
	<g>
		<g>
			<path class="st7" d="M38.3,723.5c0.6-3.3-2.4-9-6.2-6.2c-2.6,1.9-3.9,6-5.1,8.9c-1.8,4.4-3.1,9-4,13.7c-0.4,1.9,2.5,2.7,2.9,0.8
				c0.7-3.7,1.7-7.3,2.9-10.8c0.7-2,1.5-4,2.5-5.9c0.7-1.3,5.4-7.5,4.2-1.2C35,724.6,37.9,725.4,38.3,723.5L38.3,723.5z"/>
		</g>
	</g>
	<g>
		<g>
			<path class="st7" d="M26.5,737.1c0.7-4.9,4.2-24.8-5.2-24.3c-1.9,0.1-1.9,3.1,0,3c5.5-0.3,2.8,17.6,2.4,20.5
				C23.3,738.2,26.2,739,26.5,737.1L26.5,737.1z"/>
		</g>
	</g>
</g>
<g>
	<g>
		<g>
			<path class="st7" d="M193.2,577.5c5.9,0.9,7,8.2,7.1,13.1c0,1.9,3,1.9,3,0c-0.1-6.2-2-14.8-9.3-15.9
				C192.1,574.3,191.3,577.2,193.2,577.5L193.2,577.5z"/>
		</g>
	</g>
	<g>
		<g>
			<path class="st7" d="M214.3,574.5c0.6-3.3-2.4-9-6.2-6.2c-2.6,1.9-3.9,6-5.1,8.9c-1.8,4.4-3.1,9-4,13.7c-0.4,1.9,2.5,2.7,2.9,0.8
				c0.7-3.7,1.7-7.3,2.9-10.8c0.7-2,1.5-4,2.5-5.9c0.7-1.3,5.4-7.5,4.2-1.2C211,575.6,213.9,576.4,214.3,574.5L214.3,574.5z"/>
		</g>
	</g>
	<g>
		<g>
			<path class="st7" d="M202.5,588.1c0.7-4.9,4.2-24.8-5.2-24.3c-1.9,0.1-1.9,3.1,0,3c5.5-0.3,2.8,17.6,2.4,20.5
				C199.3,589.2,202.2,590,202.5,588.1L202.5,588.1z"/>
		</g>
	</g>
</g>
<g>
	<g>
		<g>
			<path class="st7" d="M95.2,428.5c5.9,0.9,7,8.2,7.1,13.1c0,1.9,3,1.9,3,0c-0.1-6.2-2-14.8-9.3-15.9
				C94.1,425.3,93.3,428.2,95.2,428.5L95.2,428.5z"/>
		</g>
	</g>
	<g>
		<g>
			<path class="st7" d="M116.3,425.5c0.6-3.3-2.4-9-6.2-6.2c-2.6,1.9-3.9,6-5.1,8.9c-1.8,4.4-3.1,9-4,13.7c-0.4,1.9,2.5,2.7,2.9,0.8
				c0.7-3.7,1.7-7.3,2.9-10.8c0.7-2,1.5-4,2.5-5.9c0.7-1.3,5.4-7.5,4.2-1.2C113,426.6,115.9,427.4,116.3,425.5L116.3,425.5z"/>
		</g>
	</g>
	<g>
		<g>
			<path class="st7" d="M104.5,439.1c0.7-4.9,4.2-24.8-5.2-24.3c-1.9,0.1-1.9,3.1,0,3c5.5-0.3,2.8,17.6,2.4,20.5
				C101.3,440.2,104.2,441,104.5,439.1L104.5,439.1z"/>
		</g>
	</g>
</g>
<g>
	<g>
		<g>
			<path class="st7" d="M783.2,640.5c5.9,0.9,7,8.2,7.1,13.1c0,1.9,3,1.9,3,0c-0.1-6.2-2-14.8-9.3-15.9
				C782.1,637.3,781.3,640.2,783.2,640.5L783.2,640.5z"/>
		</g>
	</g>
	<g>
		<g>
			<path class="st7" d="M804.3,637.5c0.6-3.3-2.4-9-6.2-6.2c-2.6,1.9-3.9,6-5.1,8.9c-1.8,4.4-3.1,9-4,13.7c-0.4,1.9,2.5,2.7,2.9,0.8
				c0.7-3.7,1.7-7.3,2.9-10.8c0.7-2,1.5-4,2.5-5.9c0.7-1.3,5.4-7.5,4.2-1.2C801,638.6,803.9,639.4,804.3,637.5L804.3,637.5z"/>
		</g>
	</g>
	<g>
		<g>
			<path class="st7" d="M792.5,651.1c0.7-4.9,4.2-24.8-5.2-24.3c-1.9,0.1-1.9,3.1,0,3c5.5-0.3,2.8,17.6,2.4,20.5
				C789.3,652.2,792.2,653,792.5,651.1L792.5,651.1z"/>
		</g>
	</g>
</g>
<g>
	<line class="st8" x1="536.9" y1="354.8" x2="578" y2="354.8"/>
	<line class="st9" x1="525" y1="325" x2="537.7" y2="355.9"/>
</g>
<path class="st7" d="M1249.4,645.8c-0.4-13.2-6.9-26-17.4-34c-3.6-2.7-7.7-5-12.2-5.5c-1.5-0.2-3.1-0.1-4.6,0.2
	c0.6-1.2,1.1-2.4,1.3-3.8c1.3-7.1-3.4-13.8-10.4-15.1c-7.1-1.3-13.8,3.4-15.1,10.4c-1.3,7.1,3.4,13.8,10.4,15.1
	c2.7,0.5,5.3,0.1,7.6-0.9c7,6.4,12.7,17.1,13,26.4c0.5,12-5.2,23.9-3.3,35.7c0.7,4.3,3.2,9.2,7.6,9.6c2.8,0.3,5.5-1.4,7.7-3.3
	C1243.9,672.1,1249.7,658.9,1249.4,645.8z"/>
<g>
	<g>
		<path class="st7" d="M1224.1,626.4c-18.5-7.4-28.5,15.2-30.1,29.6c-0.4,3.8,5.6,3.8,6,0c1.2-10.9,8.2-29.5,22.5-23.8
			C1226.1,633.6,1227.7,627.8,1224.1,626.4L1224.1,626.4z"/>
	</g>
</g>
<g>
	<g>
		<path class="st7" d="M1240,625.8c15.1,1.3,26.2-11.6,24.1-26.2c-0.6-3.8-6.3-2.2-5.8,1.6c1.6,11.1-7.6,19.6-18.3,18.6
			C1236.2,619.5,1236.2,625.5,1240,625.8L1240,625.8z"/>
	</g>
</g>
</svg>
